<svg width="31" height="31" viewBox="0 0 31 31" fill="none" xmlns="http://www.w3.org/2000/svg">
<rect width="31" height="31" rx="15.5" transform="matrix(-1 0 0 1 31 0)" fill="#17A110"/>
<path d="M19.913 17.3596L14.8261 22.4066C14.2065 23.0212 13.4976 23.1584 12.6993 22.8181C11.9011 22.4777 11.5013 21.8714 11.5 20.9992L11.5 11.0025C11.5 10.129 11.8998 9.52203 12.6993 9.18169C13.4989 8.84134 14.2078 8.97916 14.8261 9.59514L19.913 14.6421C20.1087 14.8362 20.2554 15.0465 20.3533 15.2729C20.4511 15.4994 20.5 15.742 20.5 16.0008C20.5 16.2597 20.4511 16.5023 20.3533 16.7288C20.2554 16.9552 20.1087 17.1655 19.913 17.3596Z" fill="white"/>
</svg>
