<svg width="31" height="31" viewBox="0 0 31 31" fill="none" xmlns="http://www.w3.org/2000/svg">
<rect width="31" height="31" rx="15.5" fill="#17A110"/>
<path d="M12.087 14.6404L17.1739 9.59345C17.7935 8.97876 18.5024 8.84159 19.3007 9.18193C20.0989 9.52228 20.4987 10.1286 20.5 11.0008L20.5 20.9975C20.5 21.871 20.1002 22.478 19.3007 22.8183C18.5011 23.1587 17.7922 23.0208 17.1739 22.4049L12.087 17.3579C11.8913 17.1638 11.7446 16.9535 11.6467 16.7271C11.5489 16.5006 11.5 16.258 11.5 15.9992C11.5 15.7403 11.5489 15.4977 11.6467 15.2712C11.7446 15.0448 11.8913 14.8345 12.087 14.6404Z" fill="white"/>
</svg>
