<svg width="17" height="16" viewBox="0 0 17 16" fill="none" xmlns="http://www.w3.org/2000/svg">
<path d="M7.37502 15.2996L0.775016 8.69957C0.675016 8.59957 0.604015 8.49124 0.562015 8.37457C0.520015 8.25791 0.499349 8.13291 0.500016 7.99957C0.500016 7.86624 0.521016 7.74124 0.563016 7.62457C0.605016 7.50791 0.675682 7.39957 0.775016 7.29957L7.37502 0.699572C7.55835 0.516239 7.78768 0.420572 8.06302 0.412572C8.33835 0.404572 8.57568 0.500239 8.77501 0.699572C8.97501 0.882905 9.07935 1.11224 9.08802 1.38757C9.09668 1.66291 9.00068 1.90024 8.80002 2.09957L3.90002 6.99957H15.075C15.3583 6.99957 15.596 7.09557 15.788 7.28757C15.98 7.47957 16.0757 7.71691 16.075 7.99957C16.075 8.28291 15.9793 8.52057 15.788 8.71257C15.5967 8.90457 15.359 9.00024 15.075 8.99957H3.90002L8.80002 13.8996C8.98335 14.0829 9.07935 14.3162 9.08802 14.5996C9.09668 14.8829 9.00068 15.1162 8.80002 15.2996C8.61668 15.4996 8.38335 15.5996 8.10002 15.5996C7.81668 15.5996 7.57502 15.4996 7.37502 15.2996Z" fill="white"/>
</svg>
