<svg width="16" height="16" viewBox="0 0 16 16" fill="none" xmlns="http://www.w3.org/2000/svg">
<path d="M2.66675 14.6667V4.00004H5.33341C5.33341 3.26671 5.59453 2.63893 6.11675 2.11671C6.63897 1.59449 7.26675 1.33337 8.00008 1.33337C8.73342 1.33337 9.36119 1.59449 9.88341 2.11671C10.4056 2.63893 10.6667 3.26671 10.6667 4.00004H13.3334V14.6667H2.66675ZM6.66675 4.00004H9.33342C9.33342 3.63337 9.20275 3.31937 8.94141 3.05804C8.68008 2.79671 8.3663 2.66626 8.00008 2.66671C7.63341 2.66671 7.31941 2.79737 7.05808 3.05871C6.79675 3.32004 6.6663 3.63382 6.66675 4.00004ZM4.00008 13.3334H12.0001V5.33337H10.6667V7.33337H9.33342V5.33337H6.66675V7.33337H5.33341V5.33337H4.00008V13.3334Z" fill="black"/>
</svg>
