<svg width="19" height="17" viewBox="0 0 19 17" fill="none" xmlns="http://www.w3.org/2000/svg">
<path d="M17.3545 1.5H1.64545C1.34166 1.5 1.05031 1.64183 0.835496 1.89428C0.620682 2.14673 0.5 2.48913 0.5 2.84615V15.1538C0.5 15.5109 0.620682 15.8533 0.835496 16.1057C1.05031 16.3582 1.34166 16.5 1.64545 16.5H17.3545C17.6583 16.5 17.9497 16.3582 18.1645 16.1057C18.3793 15.8533 18.5 15.5109 18.5 15.1538V2.84615C18.5 2.48913 18.3793 2.14673 18.1645 1.89428C17.9497 1.64183 17.6583 1.5 17.3545 1.5ZM1.64545 2.65385H17.3545C17.3979 2.65385 17.4396 2.67411 17.4703 2.71017C17.5009 2.74624 17.5182 2.79515 17.5182 2.84615V5.34615H1.48182V2.84615C1.48182 2.79515 1.49906 2.74624 1.52975 2.71017C1.56043 2.67411 1.60206 2.65385 1.64545 2.65385ZM17.3545 15.3462H1.64545C1.60206 15.3462 1.56043 15.3259 1.52975 15.2898C1.49906 15.2538 1.48182 15.2048 1.48182 15.1538V6.5H17.5182V15.1538C17.5182 15.2048 17.5009 15.2538 17.4703 15.2898C17.4396 15.3259 17.3979 15.3462 17.3545 15.3462ZM15.8818 12.8462C15.8818 12.9992 15.8301 13.1459 15.738 13.2541C15.646 13.3623 15.5211 13.4231 15.3909 13.4231H12.7727C12.6425 13.4231 12.5177 13.3623 12.4256 13.2541C12.3335 13.1459 12.2818 12.9992 12.2818 12.8462C12.2818 12.6931 12.3335 12.5464 12.4256 12.4382C12.5177 12.33 12.6425 12.2692 12.7727 12.2692H15.3909C15.5211 12.2692 15.646 12.33 15.738 12.4382C15.8301 12.5464 15.8818 12.6931 15.8818 12.8462ZM10.6455 12.8462C10.6455 12.9992 10.5937 13.1459 10.5017 13.2541C10.4096 13.3623 10.2847 13.4231 10.1545 13.4231H8.84545C8.71526 13.4231 8.59039 13.3623 8.49833 13.2541C8.40627 13.1459 8.35455 12.9992 8.35455 12.8462C8.35455 12.6931 8.40627 12.5464 8.49833 12.4382C8.59039 12.33 8.71526 12.2692 8.84545 12.2692H10.1545C10.2847 12.2692 10.4096 12.33 10.5017 12.4382C10.5937 12.5464 10.6455 12.6931 10.6455 12.8462Z" fill="#C3C3C3"/>
</svg>
