<svg width="85" height="85" viewBox="0 0 85 85" fill="none" xmlns="http://www.w3.org/2000/svg">
<path d="M41.4584 84.7916C38.6969 84.7916 36.4584 82.553 36.4584 79.7916V53.5416C36.4584 50.7802 34.2198 48.5416 31.4584 48.5416H5.20837C2.44695 48.5416 0.208374 46.303 0.208374 43.5416V41.4583C0.208374 38.6968 2.44695 36.4583 5.20837 36.4583H31.4584C34.2198 36.4583 36.4584 34.2197 36.4584 31.4583V5.20825C36.4584 2.44683 38.697 0.208252 41.4584 0.208252H43.5417C46.3031 0.208252 48.5417 2.44683 48.5417 5.20825V31.4583C48.5417 34.2197 50.7803 36.4583 53.5417 36.4583H79.7917C82.5531 36.4583 84.7917 38.6968 84.7917 41.4583V43.5416C84.7917 46.303 82.5531 48.5416 79.7917 48.5416H53.5417C50.7803 48.5416 48.5417 50.7802 48.5417 53.5416V79.7916C48.5417 82.553 46.3031 84.7916 43.5417 84.7916H41.4584Z" fill="#C4C4C4"/>
</svg>
