<svg width="18" height="18" viewBox="0 0 18 18" fill="none" xmlns="http://www.w3.org/2000/svg">
<path d="M12.3075 13.3425L13.32 12.33L9.7425 8.73V4.2075H8.3925V9.27L12.3075 13.3425ZM9 18C7.77 18 6.6075 17.7638 5.5125 17.2913C4.4175 16.8188 3.46125 16.1738 2.64375 15.3563C1.82625 14.5388 1.18125 13.5825 0.70875 12.4875C0.23625 11.3925 0 10.23 0 9C0 7.77 0.23625 6.6075 0.70875 5.5125C1.18125 4.4175 1.82625 3.46125 2.64375 2.64375C3.46125 1.82625 4.4175 1.18125 5.5125 0.70875C6.6075 0.23625 7.77 0 9 0C10.23 0 11.3925 0.23625 12.4875 0.70875C13.5825 1.18125 14.5388 1.82625 15.3563 2.64375C16.1738 3.46125 16.8188 4.4175 17.2913 5.5125C17.7638 6.6075 18 7.77 18 9C18 10.23 17.7638 11.3925 17.2913 12.4875C16.8188 13.5825 16.1738 14.5388 15.3563 15.3563C14.5388 16.1738 13.5825 16.8188 12.4875 17.2913C11.3925 17.7638 10.23 18 9 18ZM9 16.65C11.1 16.65 12.9 15.9 14.4 14.4C15.9 12.9 16.65 11.1 16.65 9C16.65 6.9 15.9 5.1 14.4 3.6C12.9 2.1 11.1 1.35 9 1.35C6.9 1.35 5.1 2.1 3.6 3.6C2.1 5.1 1.35 6.9 1.35 9C1.35 11.1 2.1 12.9 3.6 14.4C5.1 15.9 6.9 16.65 9 16.65Z" fill="#208D05"/>
</svg>
