<svg width="12" height="12" viewBox="0 0 12 12" fill="none" xmlns="http://www.w3.org/2000/svg">
<path d="M12 10.823L8.87261 7.7205C9.46079 6.918 9.80856 5.931 9.80856 4.865C9.80856 2.1825 7.60855 0 4.90403 0C2.20001 0 0 2.1825 0 4.865C0 7.548 2.20001 9.73 4.90403 9.73C5.92919 9.73 6.88126 9.4165 7.66954 8.881L10.8136 12L12 10.823ZM1.43845 4.865C1.43845 2.969 2.99332 1.4265 4.90453 1.4265C6.81574 1.4265 8.37062 2.969 8.37062 4.865C8.37062 6.761 6.81574 8.3035 4.90453 8.3035C2.99282 8.3035 1.43845 6.761 1.43845 4.865Z" fill="#17A110"/>
</svg>
