<svg width="20" height="18" viewBox="0 0 20 18" fill="none" xmlns="http://www.w3.org/2000/svg">
<path d="M19.384 6.79728C19.3443 6.67583 19.2389 6.58726 19.1121 6.56881L13.0246 5.68677L10.3022 0.187211C10.2456 0.0724686 10.1285 0 10.0007 0C9.87278 0 9.75534 0.0724686 9.69914 0.187211L6.97642 5.68711L0.888904 6.56914C0.762038 6.5876 0.657047 6.67583 0.617002 6.79762C0.57763 6.91874 0.610271 7.05227 0.702139 7.14118L5.10743 11.4222L4.06727 17.4673C4.04573 17.5931 4.09755 17.7202 4.20086 17.7954C4.30484 17.8712 4.44248 17.881 4.55521 17.8209L10.0007 14.9671L15.4454 17.8209C15.4946 17.8467 15.5487 17.8595 15.6022 17.8595C15.6719 17.8595 15.7412 17.838 15.8001 17.7954C15.9038 17.7202 15.9556 17.5931 15.9337 17.4673L14.8939 11.4225L19.2992 7.14118C19.3907 7.0516 19.4237 6.9184 19.384 6.79728Z" fill="#F2CB56"/>
</svg>
