<svg width="13" height="13" viewBox="0 0 13 13" fill="none" xmlns="http://www.w3.org/2000/svg">
<path d="M4.65825 9.6875L6.49992 7.84583L8.34159 9.6875L9.33325 8.69583L7.49158 6.85417L9.33325 5.0125L8.34159 4.02083L6.49992 5.8625L4.65825 4.02083L3.66659 5.0125L5.50825 6.85417L3.66659 8.69583L4.65825 9.6875ZM2.95825 12.875C2.56867 12.875 2.23504 12.7362 1.95738 12.4585C1.67971 12.1808 1.54111 11.8474 1.54159 11.4583V2.25H0.833252V0.833333H4.37492V0.125H8.62492V0.833333H12.1666V2.25H11.4583V11.4583C11.4583 11.8479 11.3194 12.1815 11.0418 12.4592C10.7641 12.7369 10.4307 12.8755 10.0416 12.875H2.95825ZM10.0416 2.25H2.95825V11.4583H10.0416V2.25Z" fill="black"/>
</svg>
