<svg width="24" height="25" viewBox="0 0 24 25" fill="none" xmlns="http://www.w3.org/2000/svg">
<path d="M12 0.859863C5.373 0.859863 0 6.23286 0 12.8599C0 19.4869 5.373 24.8599 12 24.8599C18.627 24.8599 24 19.4869 24 12.8599C24 6.23286 18.627 0.859863 12 0.859863ZM18.066 10.5049C18.249 14.5449 15.236 19.0489 9.902 19.0489C8.28 19.0489 6.771 18.5729 5.5 17.7579C7.024 17.9379 8.545 17.5139 9.752 16.5689C8.496 16.5459 7.435 15.7149 7.068 14.5739C7.519 14.6599 7.963 14.6349 8.366 14.5249C6.985 14.2469 6.031 13.0029 6.062 11.6719C6.45 11.8869 6.892 12.0159 7.363 12.0309C6.084 11.1759 5.722 9.48686 6.474 8.19586C7.89 9.93386 10.007 11.0769 12.394 11.1969C11.975 9.40086 13.338 7.66986 15.193 7.66986C16.018 7.66986 16.765 8.01886 17.289 8.57686C17.943 8.44886 18.559 8.20886 19.113 7.87986C18.898 8.55086 18.443 9.11286 17.85 9.46886C18.431 9.39886 18.985 9.24486 19.499 9.01586C19.115 9.59386 18.629 10.0999 18.066 10.5049Z" fill="#3FA1E9"/>
</svg>
