<svg width="24" height="25" viewBox="0 0 24 25" fill="none" xmlns="http://www.w3.org/2000/svg">
<path d="M12.031 7.03186C8.85 7.03186 6.264 9.61786 6.263 12.7979C6.262 14.0959 6.643 15.0679 7.282 16.0849L6.7 18.2129L8.882 17.6399C9.86 18.2199 10.793 18.5679 12.027 18.5689C15.205 18.5689 17.794 15.9819 17.795 12.8029C17.796 9.61586 15.22 7.03286 12.031 7.03186ZM15.423 15.2759C15.279 15.6809 14.586 16.0499 14.253 16.0999C13.954 16.1449 13.576 16.1629 13.161 16.0309C12.909 15.9509 12.586 15.8439 12.173 15.6659C10.434 14.9149 9.299 13.1639 9.212 13.0489C9.125 12.9329 8.504 12.1089 8.504 11.2559C8.504 10.4029 8.952 9.98286 9.111 9.80986C9.27 9.63686 9.457 9.59286 9.573 9.59286L9.905 9.59886C10.011 9.60386 10.154 9.55886 10.295 9.89686C10.439 10.2439 10.786 11.0969 10.829 11.1839C10.872 11.2709 10.901 11.3719 10.843 11.4879C10.785 11.6039 10.756 11.6759 10.67 11.7769L10.41 12.0809C10.323 12.1669 10.233 12.2609 10.334 12.4349C10.435 12.6089 10.783 13.1759 11.298 13.6359C11.96 14.2269 12.519 14.4099 12.692 14.4959C12.865 14.5819 12.966 14.5679 13.068 14.4529C13.169 14.3369 13.501 13.9469 13.617 13.7729C13.733 13.5999 13.848 13.6279 14.007 13.6859C14.166 13.7439 15.018 14.1629 15.191 14.2499C15.364 14.3369 15.48 14.3799 15.523 14.4519C15.568 14.5239 15.568 14.8709 15.423 15.2759ZM12 0.859863C5.373 0.859863 0 6.23286 0 12.8599C0 19.4869 5.373 24.8599 12 24.8599C18.627 24.8599 24 19.4869 24 12.8599C24 6.23286 18.627 0.859863 12 0.859863ZM12.029 19.7399C10.868 19.7399 9.724 19.4479 8.711 18.8959L5.034 19.8599L6.018 16.2649C5.411 15.2129 5.091 14.0189 5.092 12.7969C5.093 8.97186 8.205 5.85986 12.029 5.85986C13.885 5.86086 15.627 6.58286 16.936 7.89386C18.246 9.20486 18.967 10.9479 18.966 12.8019C18.965 16.6269 15.853 19.7399 12.029 19.7399Z" fill="#8DC749"/>
</svg>
