<svg width="124" height="48" viewBox="0 0 124 48" fill="none" xmlns="http://www.w3.org/2000/svg">
<path d="M0 24.4347C0 24.1469 0 23.858 0 23.5702C0.0558407 23.5391 0.103091 23.5498 0.142824 23.6003C0.260948 23.8687 0.260948 24.1361 0.143897 24.4046C0.104164 24.4551 0.0569146 24.4647 0 24.4347Z" fill="white"/>
<path d="M22.6607 0.990234C22.9163 0.990234 23.1729 0.990234 23.4285 0.990234C23.4597 1.045 23.45 1.09225 23.4006 1.13091C23.1633 1.24259 22.926 1.24259 22.6886 1.13198C22.6392 1.09332 22.6296 1.04608 22.6607 0.990234Z" fill="#FBF2D6"/>
<path d="M0 24.4355C0.0289942 24.4377 0.0569149 24.4377 0.0859092 24.4388C0.253431 24.6031 0.23088 24.7888 0.143897 24.98C0.105238 25.0315 0.0569146 25.0423 0 25.0122C0 24.82 0 24.6278 0 24.4355Z" fill="white"/>
<path d="M0 25.0117C0.0279204 25.0149 0.0547673 25.016 0.0826877 25.016C0.235176 25.176 0.235176 25.336 0.0826877 25.4971C0.0547673 25.4971 0.0268465 25.496 0 25.4928C0 25.3317 0 25.1717 0 25.0117Z" fill="white"/>
<path d="M0 22.6098C0.0279204 22.6065 0.0558406 22.6055 0.083761 22.6055C0.233028 22.7408 0.217994 22.8965 0.142824 23.0597C0.104165 23.1113 0.0569157 23.1209 0.00107491 23.0898C1.04872e-06 22.9298 0 22.7698 0 22.6098Z" fill="white"/>
<path d="M22.6606 0.990234C22.6606 1.01708 22.6596 1.04393 22.6585 1.07077C22.4985 1.22541 22.3385 1.22541 22.1785 1.07077C22.1795 1.04393 22.1806 1.01708 22.1806 0.990234C22.3406 0.990234 22.5006 0.990234 22.6606 0.990234Z" fill="#FCF7E8"/>
<path d="M0 23.0892C0.0279204 23.087 0.0547674 23.0859 0.0826877 23.0859C0.235176 23.2449 0.233027 23.4049 0.0869824 23.567C0.0579882 23.5681 0.0289942 23.5681 0 23.5702C0 23.4092 0 23.2492 0 23.0892Z" fill="white"/>
<path d="M23.4317 1.07273C23.4306 1.04588 23.4295 1.01903 23.4285 0.992188C23.5885 0.992188 23.7485 0.992188 23.9085 0.992188C23.9085 1.01903 23.9096 1.04588 23.9106 1.07273C23.7506 1.22629 23.5917 1.22629 23.4317 1.07273Z" fill="#FCF9ED"/>
<path d="M45.0612 30.54C43.5761 35.5013 40.74 39.5186 36.5863 42.5963C33.5537 44.8428 30.1571 46.2979 26.4201 46.7779C18.19 47.8356 11.2335 45.2916 5.66664 39.103C3.47703 36.6696 1.97041 33.8336 1.0136 30.7043C0.981382 30.598 0.962052 30.4874 0.936279 30.3779C1.09736 30.0611 1.40019 30.1481 1.65254 30.147C3.77449 30.1362 5.89644 30.1416 8.01839 30.1416C8.87103 30.1416 8.86996 30.1405 8.87211 29.3051C8.87426 28.5233 8.86244 27.7405 8.87855 26.9587C8.88392 26.6849 8.89466 26.3981 9.25763 26.3326C9.35105 26.3197 9.44448 26.3176 9.5379 26.3176C11.5578 26.3058 13.5778 26.2789 15.5966 26.3133C15.6879 26.3155 15.7803 26.3165 15.8715 26.3144C16.2216 26.2886 16.5728 26.3069 16.9239 26.3036C18.0826 26.2929 17.9913 26.4175 17.9956 25.2062C17.9989 24.2955 17.9924 23.386 17.9978 22.4753C18.0021 21.6796 18.0837 21.6012 18.8773 21.5958C19.0684 21.5948 19.2606 21.5851 19.4518 21.6066C19.5431 21.6087 19.6343 21.6087 19.7256 21.6098C21.7251 21.6141 23.7257 21.6098 25.7253 21.6109C25.7865 21.6098 25.8466 21.6098 25.9078 21.6109C25.998 21.6098 26.0893 21.6109 26.1795 21.6076C26.4834 21.5862 26.7873 21.5883 27.0902 21.6034C27.568 21.6259 27.6851 21.7333 27.699 22.2133C27.7237 23.0606 27.7044 23.9089 27.7087 24.7573C27.7098 25.1095 27.7151 25.4617 27.7087 25.8129C27.7023 26.1522 27.8429 26.3101 28.1919 26.3058C28.6075 26.3004 29.0231 26.2886 29.4387 26.3155C29.53 26.3176 29.6212 26.3176 29.7114 26.3144C31.712 26.2918 33.7137 26.2983 35.7143 26.3101C35.7755 26.3133 35.8367 26.3165 35.898 26.3176C35.9903 26.3176 36.0816 26.3176 36.1739 26.3144C36.9213 26.3101 37.0148 26.3949 37.0212 27.1198C37.0287 27.9198 37.0191 28.7188 37.0244 29.5188C37.0287 30.103 37.0652 30.1427 37.6559 30.1438C39.8455 30.1481 42.0351 30.1448 44.2236 30.1459C44.4147 30.1459 44.607 30.1395 44.797 30.1771C45.0011 30.2136 45.1192 30.3134 45.0612 30.54Z" fill="white"/>
<path d="M45.0614 30.5403C45.0367 30.1784 44.7543 30.3287 44.5868 30.3276C42.2039 30.318 39.821 30.3083 37.4381 30.3319C36.9892 30.3362 36.8711 30.2063 36.8861 29.7703C36.9194 28.8597 36.8764 27.9458 36.9044 27.0341C36.9173 26.6164 36.8303 26.3898 36.3621 26.4725C36.2708 26.4886 36.172 26.4628 36.0764 26.4575C35.9186 26.2266 35.9712 25.9624 35.9712 25.7111C35.968 21.6627 35.9744 17.6131 35.9637 13.5647C35.9615 12.7829 35.9121 11.9947 35.6662 11.2462C35.1626 9.71489 34.3207 8.49391 32.6336 8.09121C32.4264 8.04182 32.2213 8.04396 32.0151 8.04289C30.08 8.04074 28.1449 8.06759 26.2098 8.03322C24.904 8.0096 23.9558 8.60559 23.1804 9.58066C23.1504 9.61824 23.1278 9.6612 23.0999 9.69986C22.7359 10.196 22.6113 10.1981 22.258 9.71274C22.0131 9.3777 21.7586 9.05983 21.4236 8.79781C20.7771 8.2931 20.0609 8.05041 19.248 8.05255C17.4084 8.05578 15.5646 8.14168 13.7315 8.02893C11.761 7.90758 10.2941 9.48616 9.80872 10.8457C9.56603 11.5276 9.43501 12.2213 9.43824 12.9558C9.45327 17.2126 9.44683 21.4694 9.44253 25.7262C9.44253 25.9731 9.51556 26.2459 9.29004 26.4499C9.01084 26.4521 9.01836 26.6422 9.01943 26.8451C9.0248 27.788 9.02587 28.7308 9.0205 29.6737C9.01514 30.4125 9.12574 30.3201 8.34934 30.3212C6.05021 30.3255 3.75 30.3212 1.45086 30.3244C1.27904 30.3244 1.09864 30.2815 0.935409 30.3792C0.450024 28.7867 0.20411 27.1522 0.0827637 25.4963C0.0827637 25.3363 0.0827637 25.1753 0.0827637 25.0153C0.0838375 24.823 0.0849113 24.6297 0.0859851 24.4375C0.0859851 24.1476 0.0870584 23.8566 0.0870584 23.5666C0.0859845 23.4066 0.0838375 23.2466 0.0827637 23.0855C0.0827637 22.9245 0.0827631 22.7644 0.0838369 22.6034C0.444654 17.481 2.25411 12.9429 5.61637 9.05447C9.32655 4.76332 14.0172 2.20968 19.6055 1.30978C20.4539 1.1734 21.3205 1.14763 22.1785 1.07031C22.3385 1.07031 22.4985 1.07031 22.6585 1.07031C22.9163 1.07031 23.174 1.07031 23.4317 1.07031C23.5917 1.07031 23.7506 1.07031 23.9107 1.07031C28.9868 1.31408 33.5389 2.98286 37.4821 6.19478C41.5596 9.5173 44.2098 13.7644 45.4061 18.8964C46.2749 22.6259 46.1793 26.3468 45.1935 30.0431C45.1495 30.2084 45.1967 30.4007 45.0614 30.5403Z" fill="black"/>
<path d="M20.7653 36.6822C20.7653 36.01 20.7524 35.3377 20.7717 34.6655C20.7792 34.3884 20.6858 34.3165 20.4195 34.3218C19.5883 34.3369 18.7561 34.3186 17.9238 34.3326C17.664 34.3369 17.563 34.2778 17.5673 33.9932C17.5834 32.9688 17.5823 31.9443 17.5673 30.9199C17.563 30.6492 17.6403 30.5655 17.9131 30.5719C18.697 30.5891 19.482 30.5451 20.2638 30.5902C20.718 30.617 20.7878 30.4484 20.7728 30.0522C20.7438 29.2693 20.7771 28.4833 20.7577 27.6993C20.7502 27.4019 20.8437 27.3181 21.1379 27.3224C22.3857 27.3375 23.6335 27.3375 24.8814 27.3224C25.1702 27.3192 25.269 27.3858 25.2615 27.6908C25.24 28.5391 25.2647 29.3875 25.2476 30.2358C25.2422 30.5086 25.3206 30.5902 25.5955 30.5848C26.4105 30.5676 27.2267 30.5902 28.0428 30.573C28.3381 30.5666 28.4595 30.6245 28.452 30.9585C28.4283 31.9669 28.4348 32.9752 28.4498 33.9836C28.4541 34.2542 28.3768 34.3401 28.1019 34.3347C27.318 34.3176 26.533 34.3616 25.7512 34.3165C25.2991 34.2896 25.2368 34.4539 25.2454 34.8502C25.2701 36.1141 25.2443 37.3791 25.2615 38.6431C25.2658 38.9534 25.1853 39.0479 24.8674 39.0425C23.6357 39.0232 22.404 39.0211 21.1723 39.0436C20.8179 39.0501 20.747 38.9255 20.7588 38.6044C20.7824 37.9633 20.7663 37.3222 20.7653 36.6822Z" fill="black"/>
<path d="M19.4712 21.7209C19.0578 21.7337 18.5123 21.592 18.2642 21.8014C17.9732 22.0473 18.174 22.6122 18.1675 23.0385C18.1514 24.0458 18.1482 25.0541 18.1697 26.0603C18.1772 26.404 18.0634 26.5006 17.7348 26.4834C17.113 26.4523 16.4902 26.4577 15.8673 26.448C15.6816 26.2912 15.7084 26.0743 15.7084 25.8692C15.7052 21.5179 15.7041 17.1666 15.7084 12.8153C15.7095 12.1828 15.8029 12.0916 16.4311 12.0905C17.2945 12.0883 18.1579 12.0916 19.0213 12.1012C19.5195 12.1066 19.6205 12.2022 19.6226 12.694C19.6323 15.5419 19.6291 18.3887 19.6248 21.2365C19.6248 21.4116 19.6291 21.5931 19.4712 21.7209Z" fill="black"/>
<path d="M29.4732 26.4524C28.9792 26.461 28.4842 26.4524 27.9913 26.4825C27.6605 26.5029 27.5531 26.3976 27.5585 26.0572C27.5768 24.7643 27.5542 23.4703 27.5735 22.1763C27.5789 21.8327 27.507 21.678 27.1311 21.7156C26.7993 21.7489 26.461 21.7221 26.126 21.7221C25.9649 21.5728 25.9842 21.373 25.9842 21.184C25.981 18.3856 25.9789 15.5882 25.9842 12.7897C25.9853 12.1808 26.0691 12.1024 26.6822 12.097C27.4329 12.0906 28.1846 12.0895 28.9352 12.097C29.5162 12.1035 29.6064 12.1894 29.6107 12.765C29.6203 14.0117 29.6139 15.2596 29.6139 16.5063C29.6139 19.5765 29.615 22.6466 29.6117 25.7157C29.6117 25.9692 29.6654 26.2355 29.4732 26.4524Z" fill="black"/>
<path d="M9.29107 26.4486C9.29107 22.0297 9.29537 17.6107 9.28785 13.1918C9.2857 11.5584 9.70451 10.0926 10.9094 8.92641C11.5762 8.28102 12.3612 7.89121 13.3116 7.89121C15.295 7.89228 17.2795 7.89014 19.2629 7.89014C20.471 7.89014 21.4064 8.43995 22.1559 9.34844C22.3363 9.56643 22.492 9.8059 22.6789 10.0615C22.9377 9.71892 23.1439 9.38065 23.4188 9.09286C24.1759 8.30142 25.0768 7.87618 26.1872 7.88477C28.0267 7.89873 29.8673 7.91269 31.7068 7.88155C33.5217 7.85148 34.6567 8.81258 35.4503 10.3214C35.9314 11.2374 36.071 12.235 36.0742 13.2476C36.085 17.6505 36.0774 22.0533 36.0774 26.4561C36.0248 26.454 35.9722 26.4529 35.9196 26.4507C35.7209 26.236 35.7768 25.9686 35.7768 25.7184C35.7735 21.7644 35.7735 17.8105 35.7757 13.8565C35.7757 13.5676 35.765 13.2809 35.7199 12.9963C35.6898 12.8277 35.6758 12.6581 35.6823 12.4863C35.6887 12.2575 35.6597 12.0331 35.6028 11.8119C35.577 11.6486 35.5223 11.4919 35.5029 11.3276C35.4858 11.0806 35.3333 10.883 35.2549 10.6585C35.2098 10.52 35.1346 10.3965 35.0616 10.273C34.9821 10.1109 34.8833 9.96054 34.7845 9.80912C34.733 9.72429 34.6718 9.64697 34.6009 9.57717C34.515 9.48911 34.4377 9.39354 34.3679 9.29152C34.2605 9.13045 34.1177 9.01125 33.9458 8.92426C33.73 8.80399 33.5303 8.65795 33.3155 8.53553C32.8935 8.3272 32.4414 8.25203 31.9764 8.2327C30.1519 8.24344 28.3285 8.23807 26.5051 8.24451C25.5901 8.24773 24.7246 8.43351 23.9911 9.02628C23.7989 9.20132 23.6003 9.37099 23.4284 9.56751C23.2974 9.7361 23.1621 9.9004 23.0451 10.0797C22.9527 10.2226 22.9055 10.3922 22.7798 10.5147C22.7401 10.534 22.6982 10.5404 22.6542 10.5329C22.4749 10.433 22.4061 10.243 22.2902 10.0916C22.2021 9.94873 22.0829 9.8306 21.9916 9.691C21.8488 9.48052 21.6512 9.3173 21.4933 9.11971C21.3623 8.98762 21.2077 8.88668 21.0531 8.78466C20.8394 8.62358 20.6063 8.55808 20.3347 8.58278C17.316 8.85768 14.2996 9.15085 11.2852 9.47301C11.0254 9.50093 10.7773 9.54173 10.6076 9.76832C10.4831 9.99383 10.2887 10.1753 10.1867 10.4169C10.1255 10.5587 10.0535 10.6961 10.0052 10.8433C9.94613 11.028 9.83767 11.1955 9.81726 11.3941C9.80008 11.5262 9.76679 11.654 9.73565 11.7829C9.72276 11.872 9.70988 11.9611 9.6927 12.0503C9.67659 12.1415 9.64437 12.2285 9.64008 12.322C9.62612 12.4906 9.62934 12.6592 9.63471 12.8277C9.639 12.9555 9.63578 13.0833 9.63578 13.2111C9.64652 13.3969 9.63149 13.5827 9.64008 13.7684C9.64545 13.9306 9.64115 14.0928 9.63793 14.2549C9.64437 14.4729 9.64437 14.6898 9.63793 14.9078C9.64115 15.071 9.64437 15.2332 9.63793 15.3964C9.64115 15.5854 9.6433 15.7744 9.63685 15.9634C9.64008 16.0987 9.64222 16.233 9.63685 16.3683C9.64222 16.5573 9.64115 16.7463 9.63685 16.9353C9.64222 17.0985 9.64115 17.2617 9.63685 17.4239C9.64652 17.615 9.639 17.8072 9.63685 17.9984C9.64545 18.2185 9.6433 18.4376 9.63793 18.6577C9.64222 18.8489 9.64545 19.0411 9.63685 19.2323C9.64008 19.4223 9.6433 19.6124 9.63578 19.8025C9.63793 19.9367 9.64222 20.072 9.63578 20.2062C9.639 20.3931 9.64008 20.5799 9.63471 20.7668C9.63685 20.9 9.64008 21.0331 9.63471 21.1663C9.639 21.3252 9.639 21.4852 9.63471 21.6441C9.63793 21.8031 9.639 21.9631 9.63471 22.122C9.63793 22.2809 9.64008 22.4409 9.63471 22.5999C9.639 22.733 9.639 22.8662 9.63471 22.9994C9.64008 23.1862 9.639 23.3731 9.63471 23.5599C9.63793 23.7199 9.64008 23.8788 9.63363 24.0389C9.63578 24.1978 9.63793 24.3556 9.63256 24.5146C9.63363 24.6456 9.63793 24.7777 9.63256 24.9087C9.63578 25.0397 9.63578 25.1707 9.63256 25.3017C9.63685 25.4596 9.63578 25.6164 9.63256 25.7742C9.63148 25.96 9.64652 26.1479 9.58531 26.3294C9.55954 26.3777 9.52625 26.4196 9.48544 26.455C9.42423 26.4529 9.35765 26.4507 9.29107 26.4486Z" fill="white"/>
<path d="M35.3342 10.5999C35.4287 10.8243 35.592 11.0187 35.6188 11.271C34.6523 11.4783 33.6633 11.4826 32.6872 11.5964C31.7722 11.7027 30.8541 11.7908 29.937 11.8692C29.734 11.8864 29.705 12.0431 29.5826 12.1172C28.5753 12.1591 27.5681 12.1247 26.5619 12.1366C26.0282 12.143 26.0239 12.143 26.0228 12.6746C26.0206 15.4902 26.0228 18.307 26.0196 21.1226C26.0196 21.3256 26.0733 21.5414 25.9304 21.7251C25.8961 21.7251 25.8617 21.7261 25.8273 21.7261C25.7876 21.6864 25.7575 21.6402 25.7361 21.5876C25.6598 21.2332 25.7028 20.8746 25.6963 20.518C25.691 20.3827 25.6899 20.2464 25.6963 20.111C25.6899 19.922 25.6953 19.7341 25.6974 19.5451C25.6888 19.384 25.6963 19.223 25.6974 19.0619C25.691 18.9008 25.6931 18.7408 25.6974 18.5797C25.6931 18.4197 25.6931 18.2586 25.6974 18.0986C25.6931 17.9386 25.692 17.7776 25.6974 17.6175C25.6931 17.4565 25.6931 17.2954 25.6974 17.1354C25.692 16.9732 25.6931 16.8111 25.6963 16.6489C25.6877 16.4846 25.6931 16.3214 25.6953 16.1571C25.6867 15.908 25.6877 15.6599 25.6942 15.4108C25.6867 15.1895 25.6899 14.9673 25.6953 14.746C25.6877 14.5807 25.6888 14.4153 25.6942 14.2488C25.6888 14.0287 25.6877 13.8086 25.6942 13.5884C25.6899 13.4241 25.6877 13.2598 25.6942 13.0955C25.6877 12.9065 25.6899 12.7175 25.6888 12.5296C25.6448 12.1849 25.3752 12.2579 25.1691 12.274C24.0233 12.3664 22.8828 12.5146 21.737 12.5994C21.0411 12.6509 20.3549 12.8013 19.6548 12.8013C19.5646 12.6359 19.5764 12.4695 19.643 12.3009C19.8513 12.0496 20.1584 12.0539 20.4355 12.027C22.5156 11.8294 24.5945 11.6168 26.6735 11.4139C28.817 11.2045 30.9593 10.9897 33.1017 10.7792C33.8437 10.7094 34.5847 10.5934 35.3342 10.5999Z" fill="white"/>
<path d="M13.2042 39.7595C13.6746 40.5466 14.0934 41.2478 14.5347 41.9867C14.9503 41.2435 15.338 40.552 15.7858 39.752C16.0381 40.9772 16.2679 42.0865 16.4967 43.1958C15.775 43.3709 15.7707 43.3666 15.6419 42.6664C15.5957 42.4151 15.5399 42.166 15.484 41.9158C15.4786 41.8911 15.4475 41.8718 15.4056 41.8224C15.1146 42.3002 14.83 42.7695 14.5154 43.2871C14.1814 42.7684 13.8743 42.2938 13.5092 41.7257C13.4329 42.1144 13.3771 42.4012 13.3202 42.6868C13.1945 43.3204 13.1945 43.3204 12.4998 43.2227C12.7263 42.1048 12.954 40.9869 13.2042 39.7595Z" fill="black"/>
<path d="M19.7805 41.5574C19.7805 41.1096 19.7955 40.6607 19.7751 40.214C19.7622 39.9541 19.8535 39.8886 20.1005 39.8972C20.5622 39.9144 21.0262 39.8832 21.4815 40.0035C22.2826 40.2151 22.7594 40.8035 22.7572 41.5864C22.7551 42.3392 22.2396 42.9695 21.475 43.1736C20.9875 43.3035 20.4914 43.2487 19.9974 43.2691C19.7773 43.2777 19.7783 43.1532 19.7794 42.9964C19.7826 42.5174 19.7805 42.0374 19.7805 41.5574Z" fill="black"/>
<path d="M16.9959 41.5924C16.9959 41.1285 17.0066 40.6646 16.9916 40.2006C16.9841 39.9773 17.0431 39.8914 17.2815 39.8989C17.8088 39.9161 18.3371 39.9171 18.8633 39.9C19.2027 39.8892 19.1028 40.1222 19.1039 40.2898C19.1049 40.4573 19.2005 40.6978 18.8622 40.6764C18.5916 40.6592 18.3189 40.6807 18.0472 40.671C17.8625 40.6646 17.7551 40.6871 17.7562 40.9223C17.7562 41.1757 17.9001 41.1585 18.0644 41.1542C18.1922 41.151 18.3232 41.1725 18.4477 41.1499C18.873 41.0715 18.9621 41.2734 18.9256 41.6514C18.9063 41.849 18.8719 41.9446 18.655 41.9263C18.4649 41.9102 18.2716 41.9306 18.0805 41.921C17.884 41.9113 17.7551 41.922 17.7551 42.1884C17.7551 42.4461 17.8356 42.5277 18.0826 42.503C18.2727 42.4837 18.4692 42.5234 18.6571 42.4944C19.0491 42.4343 19.1468 42.605 19.1178 42.9658C19.1006 43.1763 19.077 43.3073 18.83 43.2687C18.7828 43.2611 18.7345 43.2697 18.6861 43.2676C18.1331 43.2386 17.5768 43.3288 17.0259 43.216C17.0259 42.6748 17.0259 42.1347 17.0259 41.5934C17.0152 41.5924 17.0055 41.5924 16.9959 41.5924Z" fill="black"/>
<path d="M19.687 12.3275C19.687 12.4875 19.687 12.6475 19.6881 12.8075C19.8019 12.9117 19.8084 13.0524 19.8148 13.192C19.8288 13.3831 19.8138 13.5743 19.8213 13.7654C19.8309 13.9286 19.8116 14.0919 19.8234 14.2562C19.8277 14.4763 19.8234 14.6954 19.8202 14.9144C19.8299 15.0809 19.8245 15.2463 19.8213 15.4127C19.8395 15.664 19.8095 15.9142 19.8256 16.1655C19.8352 16.4157 19.817 16.6659 19.8234 16.9161C19.8309 17.1083 19.8084 17.2995 19.8213 17.4917C19.8256 17.627 19.8116 17.7623 19.8223 17.8976C19.8266 18.0587 19.8095 18.2209 19.8223 18.3819C19.8266 18.5452 19.8095 18.7073 19.8245 18.8705C19.8299 19.0359 19.8095 19.2013 19.8277 19.3677C19.8213 19.7028 19.8127 20.0389 19.8245 20.374C19.8245 20.6736 19.8137 20.9732 19.8159 21.2738C19.8191 21.3812 19.8095 21.4886 19.7805 21.5928C19.7622 21.6433 19.7332 21.6884 19.6967 21.727C19.6226 21.7249 19.5474 21.7238 19.4733 21.7216C19.4787 18.6493 19.483 15.577 19.4948 12.5058C19.4959 12.2706 19.4078 12.2051 19.1855 12.2072C18.1944 12.2148 17.2021 12.2191 16.2109 12.2051C15.9232 12.2008 15.8512 12.32 15.8684 12.5767C15.8834 12.8 15.8716 13.0245 15.8716 13.2489C15.8716 17.6496 15.8716 22.0492 15.8705 26.4499C15.804 26.452 15.7384 26.4552 15.6719 26.4574C15.4603 26.2469 15.5226 25.9784 15.5183 25.7239C15.5183 25.5585 15.5086 25.3921 15.5205 25.2267C15.5194 25.0657 15.5151 24.9046 15.5226 24.7435C15.5215 24.6114 15.5172 24.4793 15.5226 24.3462C15.5183 24.2141 15.5194 24.0831 15.5226 23.951C15.5172 23.7921 15.5194 23.6331 15.5215 23.4753C15.5162 23.3153 15.5172 23.1563 15.5205 22.9963C15.5162 22.8095 15.5162 22.6226 15.5215 22.4358C15.5194 22.3026 15.5151 22.1694 15.5215 22.0363C15.5172 21.8774 15.5172 21.7174 15.5215 21.5584C15.5183 21.3995 15.5172 21.2395 15.5215 21.0806C15.5183 20.9216 15.5162 20.7616 15.5215 20.6027C15.5172 20.4695 15.5172 20.3364 15.5215 20.2032C15.5172 20.0164 15.5172 19.8295 15.5215 19.6427C15.5172 19.5084 15.5172 19.3731 15.5205 19.2389C15.514 19.0488 15.5162 18.8587 15.5194 18.6687C15.5129 18.4775 15.514 18.2853 15.5183 18.0941C15.5129 17.874 15.5119 17.6549 15.5183 17.4348C15.5151 17.2436 15.5108 17.0514 15.5194 16.8603C15.5162 16.6971 15.5129 16.5338 15.5194 16.3717C15.5162 16.1827 15.514 15.9937 15.5205 15.8047C15.5172 15.6694 15.5151 15.5351 15.5205 15.3998C15.5151 15.2108 15.5162 15.0218 15.5205 14.8328C15.5151 14.6696 15.5151 14.5064 15.5194 14.3442C15.514 14.1262 15.5129 13.9072 15.5194 13.6892C15.5151 13.5238 15.5129 13.3595 15.5194 13.1941C15.5119 12.9976 15.5151 12.8011 15.5183 12.6035C15.5086 12.4252 15.5151 12.2491 15.5838 12.0795C15.6848 11.8883 15.8609 11.8142 16.0585 11.8131C17.2182 11.8035 18.3748 11.9066 19.5335 11.9388C19.5818 11.9399 19.6215 11.9742 19.6634 11.9957C19.7762 12.0956 19.7536 12.2105 19.687 12.3275Z" fill="white"/>
<path d="M25.9295 21.7259C25.9273 18.6708 25.9349 15.6146 25.9134 12.5594C25.9102 12.1245 26.0433 12.0193 26.4568 12.03C27.5274 12.0579 28.5991 12.0408 29.6698 12.0408C29.7385 12.0966 29.7685 12.1718 29.7847 12.2555C29.8158 12.4993 29.8051 12.7441 29.8029 12.989C29.8061 13.1501 29.8094 13.3111 29.8029 13.4733C29.8061 13.6344 29.8083 13.7965 29.8029 13.9576C29.8094 14.0929 29.8061 14.2293 29.804 14.3646C29.8126 14.5837 29.8094 14.8038 29.8061 15.0229C29.8126 15.272 29.8136 15.5222 29.8061 15.7714C29.8104 15.9378 29.8136 16.1053 29.8061 16.2718C29.8136 16.4941 29.8126 16.7163 29.8061 16.9386C29.8115 17.1888 29.8136 17.438 29.8051 17.6882C29.8072 17.8536 29.8136 18.0189 29.8051 18.1843C29.8094 18.3765 29.8115 18.5688 29.8051 18.761C29.8115 18.9264 29.8104 19.0917 29.8061 19.256C29.8136 19.5041 29.8136 19.7532 29.8061 20.0013C29.8094 20.2204 29.8136 20.4394 29.804 20.6585C29.804 20.7938 29.8115 20.9291 29.8029 21.0633C29.8051 21.2244 29.8072 21.3844 29.8029 21.5455C29.8083 21.6797 29.8061 21.814 29.804 21.9482C29.8115 22.1383 29.8083 22.3273 29.8051 22.5173C29.8126 22.7096 29.8104 22.9018 29.8061 23.0929C29.8136 23.3142 29.8126 23.5354 29.8061 23.7566C29.8115 23.9778 29.8136 24.2001 29.8061 24.4213C29.8104 24.6135 29.8136 24.8068 29.8051 24.999C29.8083 25.1902 29.8115 25.3813 29.804 25.5725C29.8061 25.7368 29.8115 25.9011 29.8008 26.0654C29.804 26.2093 29.7664 26.3414 29.6708 26.452C29.6053 26.452 29.5398 26.4509 29.4743 26.4509C29.4743 21.8784 29.4668 17.3048 29.485 12.7323C29.4872 12.2931 29.3605 12.1997 28.9513 12.2147C28.1212 12.2469 27.2901 12.2276 26.4589 12.2222C26.2495 12.2212 26.0949 12.2233 26.0959 12.5143C26.1121 15.5834 26.1185 18.6536 26.126 21.7227C26.0594 21.7238 25.995 21.7248 25.9295 21.7259Z" fill="white"/>
<path d="M27.3836 40.9136C26.5706 40.4529 25.9875 40.4797 25.6321 40.949C25.3615 41.3066 25.3808 41.8607 25.6761 42.1883C26.0713 42.6275 26.6587 42.6006 27.3986 42.1109C27.5511 42.9851 27.332 43.2514 26.4557 43.2664C25.7448 43.2782 25.0801 42.8551 24.8213 42.2269C24.5464 41.5611 24.686 40.7965 25.1693 40.3176C25.674 39.8172 26.4579 39.6937 27.1215 39.9439C27.6821 40.1544 27.3363 40.5377 27.3836 40.9136Z" fill="black"/>
<path d="M27.6594 43.2707C28.2393 42.0862 28.7827 40.9737 29.3744 39.7656C29.9629 40.9565 30.5191 42.083 31.099 43.2567C30.6727 43.2374 30.2367 43.4457 30.0735 42.883C30.0466 42.7896 29.9596 42.7864 29.878 42.7864C29.5108 42.7864 29.1435 42.7875 28.7762 42.7864C28.6882 42.7864 28.6152 42.8143 28.5937 42.9034C28.467 43.4114 28.0696 43.2406 27.6594 43.2707Z" fill="black"/>
<path d="M29.6763 13.9632C29.6763 13.8032 29.6763 13.6432 29.6763 13.4832C30.2755 13.1632 30.9456 13.2405 31.5834 13.1664C32.7808 13.0268 33.9835 12.9216 35.183 12.7981C35.4064 12.7755 35.6276 12.7433 35.8188 12.9044C35.9723 13.0676 35.9036 13.2706 35.9047 13.4542C35.9133 17.7872 35.9165 22.1202 35.9208 26.4533L35.8767 26.4597H35.8327C35.604 26.2127 35.6867 25.9088 35.6791 25.6221C35.6738 25.4234 35.6738 25.2248 35.6813 25.0261C35.6738 24.8307 35.6749 24.6363 35.6813 24.4409C35.6727 24.2465 35.6791 24.0521 35.6813 23.8588C35.6695 23.6365 35.6781 23.4153 35.6813 23.193C35.6727 22.9718 35.6738 22.7506 35.6813 22.5283C35.6781 22.3361 35.6738 22.1439 35.6824 21.9527C35.6802 21.7626 35.6759 21.5736 35.6834 21.3836C35.6824 21.2493 35.677 21.1151 35.6834 20.9809C35.6802 20.8198 35.6792 20.6598 35.6834 20.4987C35.6759 20.3634 35.6813 20.2281 35.6824 20.0939C35.6738 19.8748 35.677 19.6557 35.6802 19.4367C35.6738 19.1886 35.6727 18.9395 35.6813 18.6914C35.6791 18.526 35.6727 18.3607 35.6813 18.1964C35.677 18.0041 35.6759 17.8119 35.6813 17.6197C35.6749 17.4543 35.677 17.2889 35.6802 17.1236C35.6727 16.8734 35.6727 16.6242 35.6791 16.374C35.6738 16.1517 35.6716 15.9284 35.6802 15.7061C35.6749 15.5386 35.6738 15.371 35.6802 15.2035C35.6716 14.9522 35.6727 14.7009 35.6791 14.4497C35.6716 14.2284 35.6738 14.0083 35.6716 13.7871C35.6169 13.4735 35.372 13.5465 35.1809 13.5659C33.5443 13.7302 31.9067 13.8902 30.2712 14.0577C30.0618 14.0781 29.8545 14.1211 29.6763 13.9632Z" fill="white"/>
<path d="M35.8143 25.5861C35.8197 25.876 35.8261 26.1671 35.8315 26.457C33.7772 26.4549 31.724 26.4538 29.6697 26.4516C29.675 26.3238 29.6804 26.195 29.6858 26.0672C30.1851 25.7923 30.7457 25.9083 31.274 25.8427C32.4606 25.6946 33.6526 25.5958 34.8425 25.4744C35.1732 25.4411 35.5126 25.3627 35.8143 25.5861Z" fill="black"/>
<path d="M31.3986 41.5843C31.3986 41.1215 31.4211 40.6576 31.3911 40.1969C31.3685 39.849 31.579 39.9059 31.782 39.9037C31.9881 39.9016 32.1868 39.8543 32.1739 40.1969C32.1481 40.8498 32.1793 41.5059 32.16 42.1588C32.1524 42.4284 32.2298 42.5326 32.5036 42.5025C32.6926 42.4821 32.8902 42.525 33.076 42.4928C33.5023 42.4198 33.5238 42.655 33.5184 42.9803C33.5141 43.2155 33.44 43.2767 33.2156 43.2714C32.7055 43.2574 32.1943 43.2553 31.6853 43.2714C31.4512 43.2789 31.3857 43.1983 31.3932 42.9728C31.4093 42.51 31.3986 42.0472 31.3986 41.5843Z" fill="black"/>
<path d="M15.6485 25.683C15.656 25.9396 15.6624 26.1974 15.67 26.454C13.6103 26.454 11.5506 26.454 9.49097 26.454C9.49741 26.4207 9.50385 26.3885 9.5103 26.3552C10.0902 25.9203 10.7925 26.0169 11.4454 25.9407C12.632 25.8011 13.8229 25.7012 15.0117 25.5777C15.234 25.5541 15.4573 25.5165 15.6485 25.683Z" fill="black"/>
<path d="M23.2362 41.5362C23.2362 41.0895 23.2577 40.6406 23.2298 40.195C23.2083 39.8524 23.4145 39.8996 23.6207 39.9018C23.8247 39.9039 24.0223 39.8492 24.0126 40.196C23.9879 41.1217 23.989 42.0484 24.0116 42.9741C24.0202 43.3156 23.8258 43.2694 23.6196 43.2673C23.4156 43.2651 23.2062 43.321 23.2287 42.973C23.2599 42.4952 23.2362 42.0151 23.2362 41.5362Z" fill="black"/>
<path d="M19.6946 21.7258C19.6946 21.6989 19.6989 21.6731 19.7053 21.6474C19.8847 21.4702 20.1155 21.497 20.3346 21.4959C21.954 21.4906 23.5744 21.4917 25.1938 21.4949C25.415 21.4949 25.6427 21.482 25.8263 21.6474C25.8274 21.6742 25.8274 21.7 25.8263 21.7268C23.7828 21.7268 21.7381 21.7258 19.6946 21.7258Z" fill="black"/>
<path d="M18.1482 32.2934C18.1482 31.91 18.1675 31.5245 18.1418 31.1422C18.1203 30.8243 18.3168 30.877 18.5069 30.8694C18.7055 30.8608 18.8602 30.8748 18.8226 31.14C18.8075 31.2496 18.8365 31.3666 18.8172 31.4751C18.7496 31.8628 18.9257 31.9207 19.2822 31.9465C19.8019 31.9841 19.948 31.7972 19.8825 31.3162C19.8524 31.0971 19.7933 30.8576 20.2046 30.8555C20.5998 30.8544 20.5504 31.0595 20.5493 31.3022C20.5461 32.0217 20.5343 32.7422 20.5547 33.4607C20.5622 33.7431 20.4355 33.7624 20.2132 33.7603C19.9952 33.7592 19.8342 33.7485 19.8728 33.4628C19.8921 33.3211 19.8556 33.1718 19.8803 33.0322C19.9576 32.5844 19.7622 32.4985 19.3413 32.4877C18.8827 32.4759 18.7571 32.6327 18.8172 33.0472C18.8376 33.1879 18.8054 33.3361 18.8237 33.4778C18.8569 33.7334 18.727 33.7753 18.5155 33.757C18.335 33.7409 18.1235 33.8193 18.1428 33.4929C18.1654 33.0945 18.1482 32.6939 18.1482 32.2934Z" fill="white"/>
<path d="M21.7004 29.0269C21.7004 28.6435 21.7198 28.258 21.694 27.8757C21.6725 27.5568 21.8701 27.6115 22.0591 27.6029C22.2588 27.5933 22.4113 27.6094 22.3748 27.8735C22.3598 27.9831 22.3888 28.1001 22.3694 28.2086C22.3018 28.5973 22.479 28.6532 22.8355 28.6789C23.3553 28.7165 23.5002 28.5286 23.4347 28.0486C23.4047 27.8295 23.3456 27.59 23.7579 27.5879C24.1531 27.5868 24.1037 27.793 24.1027 28.0346C24.0994 28.7541 24.0876 29.4747 24.108 30.1931C24.1155 30.4766 23.9878 30.4938 23.7665 30.4927C23.5475 30.4916 23.3875 30.4809 23.4261 30.1942C23.4455 30.0524 23.4089 29.9031 23.4336 29.7635C23.511 29.3147 23.3144 29.2309 22.8946 29.2191C22.435 29.2062 22.3115 29.3651 22.3705 29.7796C22.3909 29.9203 22.3587 30.0685 22.377 30.2103C22.4103 30.4658 22.2792 30.5066 22.0688 30.4884C21.8884 30.4734 21.6768 30.5496 21.6961 30.2242C21.7176 29.8269 21.7004 29.4263 21.7004 29.0269Z" fill="white"/>
<path d="M27.6883 31.7697C26.9624 31.3466 26.5404 31.3541 26.2096 31.7557C25.9487 32.0725 25.953 32.5998 26.2193 32.9069C26.5372 33.2742 27.0075 33.2666 27.6969 32.8833C27.7979 33.6307 27.6067 33.8519 26.8615 33.8498C26.2472 33.8487 25.6834 33.4803 25.4633 32.937C25.2367 32.3743 25.3699 31.6977 25.7865 31.2961C26.2333 30.8666 26.9592 30.757 27.5273 31.0072C27.93 31.1844 27.6465 31.4593 27.6883 31.7697Z" fill="white"/>
<path d="M24.2747 36.996C24.2747 37.8164 23.9353 38.1085 23.1654 37.9635C22.5307 37.8443 22.0937 37.4814 21.939 36.8392C21.8005 36.2636 21.9562 35.7578 22.4083 35.3745C22.9055 34.9535 23.4682 34.9095 24.0685 35.1414C24.4948 35.3068 24.1576 35.5978 24.2822 35.9189C23.9321 35.7567 23.7152 35.5688 23.4188 35.5742C23.1203 35.5806 22.8948 35.6977 22.7208 35.9253C22.4845 36.2346 22.5082 36.7468 22.7605 37.0389C23.0795 37.4062 23.5498 37.3987 24.2747 36.996Z" fill="white"/>
<path d="M24.4788 33.8508C24.1041 33.8282 23.7819 33.9732 23.6262 33.5597C23.5714 33.4158 22.4686 33.4019 22.417 33.5447C22.2688 33.9603 21.9617 33.8443 21.6191 33.8325C22.0895 32.8488 22.5459 31.8942 23.0484 30.8418C23.5456 31.8867 23.9977 32.8381 24.4788 33.8508Z" fill="white"/>
<path d="M19.6838 12.0401C18.5187 12.082 17.3578 11.9864 16.1959 11.9478C15.9962 11.9413 15.7674 11.8887 15.6504 12.1368C15.5419 12.2624 15.4098 12.343 15.2412 12.3569C13.4683 12.5073 11.7029 12.7414 9.92672 12.8606C9.78497 12.8702 9.63999 12.881 9.50684 12.809C9.50684 12.6168 9.50684 12.4246 9.50684 12.2334C10.0287 11.8737 10.6441 11.9854 11.2186 11.9177C12.3869 11.7803 13.5596 11.6729 14.7312 11.5601C15.8555 11.4527 16.9798 11.3325 18.1052 11.2315C19.2457 11.1295 20.385 11.0049 21.5244 10.8922C22.3158 10.8127 23.1073 10.73 23.9009 10.6591C25.0735 10.5539 26.244 10.4272 27.4145 10.3101C28.1899 10.2328 28.9652 10.1426 29.7427 10.0846C30.9175 9.99657 32.0826 9.81938 33.2574 9.74529C33.7836 9.712 34.3216 9.46286 34.8521 9.73562C34.9487 9.89563 35.0443 10.0556 35.141 10.2167C35.0432 10.4304 34.8446 10.4315 34.6534 10.4508C30.8444 10.8374 27.0312 11.1961 23.2222 11.5848C22.2063 11.689 21.1894 11.777 20.1735 11.8855C19.9985 11.9027 19.8213 11.907 19.6838 12.0401Z" fill="white"/>
<path d="M19.6839 12.0413C19.5207 11.8866 19.5089 11.7782 19.7731 11.7546C20.863 11.6579 21.953 11.5699 23.0419 11.4625C24.1609 11.3519 25.2777 11.2166 26.3956 11.1006C27.1526 11.0222 27.9118 10.9631 28.6689 10.888C29.8673 10.7688 31.0636 10.6399 32.2621 10.5228C33.0352 10.4466 33.8095 10.3779 34.5837 10.3156C34.7738 10.3006 34.9682 10.3253 35.1411 10.2168C35.1969 10.3489 35.3473 10.4337 35.3333 10.6012C34.835 10.9395 34.2476 10.7956 33.7085 10.8697C32.1568 11.0813 30.5933 11.2112 29.034 11.3605C27.899 11.47 26.7607 11.5495 25.6256 11.6611C24.5077 11.7707 23.3941 11.9253 22.2752 12.0187C21.5331 12.081 20.79 12.1283 20.0523 12.2367C19.9288 12.255 19.8085 12.299 19.6872 12.3302C19.6861 12.2324 19.685 12.1369 19.6839 12.0413Z" fill="white"/>
<path d="M22.3717 10.0219C22.4684 10.1819 22.5639 10.3419 22.6606 10.5019C22.4995 10.6887 22.2794 10.7081 22.0539 10.7295C20.4882 10.8767 18.9236 11.0356 17.3579 11.1849C15.9189 11.3223 14.4799 11.4716 13.0399 11.6069C12.2184 11.6842 11.3936 11.7379 10.5743 11.8539C10.2511 11.9 9.90634 11.9709 9.60352 11.7519C9.6658 11.6316 9.71198 11.507 9.69909 11.3674C9.79788 11.1945 9.96326 11.1526 10.1437 11.1322C12.0777 10.9153 14.0182 10.7596 15.9543 10.5545C17.81 10.358 19.6688 10.1829 21.5255 10.0025C21.8069 9.97461 22.0936 9.87904 22.3717 10.0219Z" fill="white"/>
<path d="M22.3716 10.0217C21.5941 10.1924 20.7995 10.2182 20.0123 10.3063C18.815 10.4405 17.6155 10.5597 16.416 10.6757C15.2938 10.7841 14.1695 10.8625 13.0494 10.986C11.9326 11.1095 10.8051 11.1428 9.69897 11.3651C9.76341 11.1729 9.82676 10.9806 9.89119 10.7884C10.5999 10.4899 11.3635 10.5393 12.1033 10.462C14.5786 10.2053 17.0571 9.9755 19.5334 9.71885C20.2164 9.64797 20.9004 9.59858 21.5823 9.52341C21.7649 9.503 21.9313 9.53522 22.0849 9.63509C22.1794 9.76502 22.276 9.89389 22.3716 10.0217Z" fill="white"/>
<path d="M22.084 9.63754C20.8727 9.75889 19.6613 9.88346 18.449 10.0016C17.6768 10.0768 16.9037 10.138 16.1316 10.2153C14.9514 10.3323 13.7723 10.4666 12.5921 10.5772C11.6933 10.6609 10.7923 10.7211 9.89136 10.7909C9.95472 10.6631 10.0191 10.5342 10.0825 10.4064C10.2532 10.1412 10.5389 10.124 10.8031 10.0982C12.881 9.89634 14.9589 9.69124 17.0368 9.48828C18.4167 9.35405 19.7966 9.2123 21.1766 9.07484C21.3194 9.06088 21.4611 9.04155 21.605 9.06088C21.764 9.2531 21.924 9.44532 22.084 9.63754Z" fill="white"/>
<path d="M22.7551 10.5016C22.8196 10.3416 22.8851 10.1816 22.9495 10.0216C23.2459 9.8401 23.5788 9.81325 23.9138 9.78211C26.3869 9.55123 28.8568 9.29136 31.3299 9.0594C32.2148 8.97671 33.0953 8.80382 33.9909 8.86718C34.2336 8.89295 34.3517 9.07229 34.4688 9.25377C34.356 9.49109 34.1295 9.54264 33.9082 9.55982C32.4618 9.6715 31.0196 9.83258 29.5763 9.97218C28.1491 10.1096 26.722 10.2482 25.2959 10.4071C24.5839 10.4866 23.8655 10.5166 23.1546 10.6176C23.0107 10.638 22.8636 10.6229 22.7551 10.5016Z" fill="white"/>
<path d="M21.604 9.06043C21.1734 9.38796 20.6461 9.26232 20.1714 9.32353C18.7282 9.51038 17.2731 9.59307 15.8245 9.73696C14.3608 9.88193 12.9014 10.0656 11.4377 10.2009C10.9792 10.2428 10.5207 10.2438 10.0825 10.406C10.1126 10.1483 10.336 10.0194 10.467 9.82931C10.9717 9.46098 11.5763 9.56837 12.1347 9.5093C14.8977 9.22044 17.6629 8.95949 20.4281 8.68458C20.7051 8.65666 20.9661 8.65129 21.2206 8.77156C21.3484 8.86821 21.4762 8.96486 21.604 9.06043Z" fill="white"/>
<path d="M34.8531 9.73444C33.6375 9.85686 32.4229 9.98143 31.2073 10.1006C30.4492 10.1747 29.6889 10.2359 28.9307 10.3111C27.7312 10.4303 26.5328 10.5613 25.3333 10.6784C24.5429 10.7557 23.7504 10.8094 22.9601 10.8878C21.8078 11.0027 20.6577 11.1337 19.5055 11.2497C18.7312 11.328 17.9548 11.386 17.1805 11.4634C15.9972 11.5815 14.8138 11.7093 13.6304 11.8295C12.9195 11.9015 12.2096 11.9906 11.4966 12.0314C10.8297 12.0701 10.1682 12.142 9.50781 12.2312C9.53895 12.1667 9.5701 12.1034 9.60231 12.0389C9.66996 11.9176 9.76983 11.8564 9.91158 11.851C11.0542 11.8059 12.1892 11.6534 13.3265 11.545C14.4304 11.4397 15.5354 11.3323 16.6372 11.2003C17.3921 11.1101 18.1535 11.0553 18.9127 10.9833C19.7804 10.9007 20.648 10.8072 21.5157 10.7235C22.29 10.6483 23.0632 10.5667 23.8385 10.498C24.6911 10.4217 25.5427 10.3358 26.3943 10.2456C27.1513 10.1661 27.9106 10.0985 28.6687 10.0201C29.5514 9.92988 30.4363 9.8386 31.3201 9.76129C32.1104 9.69149 32.8976 9.55833 33.6912 9.54974C34.0155 9.54651 34.3408 9.30168 34.6662 9.539C34.7553 9.57873 34.8187 9.64209 34.8531 9.73444Z" fill="white"/>
<path d="M34.6642 9.54043C33.4808 9.66285 32.2975 9.78849 31.113 9.90769C30.3538 9.98394 29.5935 10.0441 28.8353 10.1192C27.6348 10.2384 26.4363 10.3695 25.2358 10.4876C24.4615 10.5638 23.684 10.6197 22.9098 10.697C21.7414 10.813 20.5741 10.9429 19.4058 11.0599C18.6315 11.1373 17.8551 11.1963 17.0798 11.2726C15.8953 11.3907 14.713 11.5228 13.5285 11.6388C12.7221 11.7171 11.9113 11.759 11.107 11.8557C10.6044 11.9158 10.09 11.8793 9.60034 12.0404C9.60142 11.9448 9.60141 11.8482 9.60249 11.7526C10.9985 11.7139 12.3816 11.5314 13.7691 11.3821C14.888 11.2618 16.0113 11.1877 17.1313 11.0771C18.2814 10.9633 19.4283 10.8151 20.5795 10.7131C21.2743 10.6519 21.9701 10.61 22.6596 10.5037C22.6907 10.5037 22.7229 10.5037 22.7541 10.5037C23.9675 10.3813 25.181 10.2578 26.3955 10.1386C27.1537 10.0645 27.9118 10.0022 28.67 9.92702C29.8684 9.80782 31.0657 9.68111 32.2631 9.56084C32.6894 9.51788 33.1157 9.46312 33.5431 9.45452C33.8696 9.44808 34.1756 9.39761 34.4677 9.25586C34.5343 9.34929 34.5987 9.44486 34.6642 9.54043Z" fill="white"/>
<path d="M32.0708 8.10156C32.5357 8.17136 33.0211 8.16814 33.4152 8.48493C33.3164 8.73192 33.0963 8.78669 32.8708 8.80494C30.7886 8.97354 28.715 9.23019 26.6327 9.40738C25.823 9.4761 25.0134 9.56094 24.2047 9.65222C23.9094 9.68551 23.6002 9.76175 23.3328 9.54161C23.4552 9.34402 23.6152 9.18401 23.8128 9.06052C24.2391 8.78776 24.732 8.82642 25.2013 8.78132C27.3533 8.57836 29.4989 8.30237 31.6595 8.19606C31.8045 8.19069 31.9473 8.19177 32.0708 8.10156Z" fill="white"/>
<path d="M29.6751 13.0009C29.6751 12.7442 29.6751 12.4887 29.6741 12.232C29.9468 12.0215 30.284 12.0462 30.5922 12.0215C32.1182 11.9002 33.6366 11.6994 35.1626 11.5855C35.3688 11.5705 35.5835 11.52 35.7156 11.7509C35.7747 11.9711 35.8445 12.1901 35.8101 12.4242C35.1894 12.7421 34.5 12.6691 33.8417 12.7442C32.668 12.8785 31.4921 13.0009 30.3141 13.0922C30.0929 13.1094 29.8695 13.1706 29.6751 13.0009Z" fill="white"/>
<path d="M23.3328 9.54301C24.6956 9.5022 26.0433 9.30891 27.3974 9.17252C28.4992 9.06084 29.6095 9.01037 30.7049 8.85788C31.608 8.73224 32.5444 8.83855 33.4153 8.48633C33.6269 8.58512 33.8234 8.70539 33.9909 8.8697C33.3434 9.10702 32.655 9.06514 31.986 9.14997C30.7607 9.30461 29.529 9.412 28.2994 9.52905C27.1633 9.63643 26.025 9.72878 24.8889 9.83295C24.2424 9.89201 23.5959 9.96074 22.9495 10.0241C23.0773 9.86302 23.205 9.70301 23.3328 9.54301Z" fill="white"/>
<path d="M21.2205 8.77433C20.0049 8.89675 18.7904 9.02239 17.5748 9.14051C16.8005 9.21568 16.0241 9.27475 15.2499 9.35206C14.0665 9.47019 12.8831 9.59905 11.6997 9.7204C11.2895 9.76228 10.8771 9.79449 10.4658 9.83208C10.5485 9.48415 10.7772 9.37569 11.1241 9.34347C12.5727 9.20817 14.0192 9.03742 15.4668 8.88816C16.2228 8.80976 16.9809 8.7507 17.738 8.67875C18.6357 8.59284 19.5335 8.50908 20.4291 8.40921C20.7802 8.36841 20.9864 8.58962 21.2205 8.77433Z" fill="white"/>
<path d="M15.6494 17.4198C15.6494 17.6442 15.6494 17.8687 15.6494 18.092C15.3745 18.3143 15.0351 18.2402 14.7269 18.2746C13.1258 18.4507 11.5247 18.615 9.91925 18.746C9.77428 18.7578 9.63145 18.7707 9.50903 18.6687C9.50903 18.4443 9.50903 18.2198 9.50903 17.9965C9.62716 17.8526 9.78287 17.786 9.96542 17.7677C11.6321 17.6034 13.2998 17.4509 14.9653 17.2834C15.1994 17.2598 15.4475 17.2458 15.6494 17.4198Z" fill="white"/>
<path d="M15.6504 13.6728C15.6504 13.8972 15.6504 14.1217 15.6504 14.345C15.3755 14.5673 15.0362 14.4932 14.728 14.5276C13.1269 14.7058 11.5236 14.8573 9.91925 14.999C9.77428 15.0119 9.63145 15.0226 9.50903 14.9217C9.50903 14.6973 9.50903 14.4728 9.50903 14.2495C9.66045 14.0873 9.85804 14.0368 10.0696 14.0175C11.6879 13.8682 13.3041 13.7029 14.9202 13.5439C15.1704 13.5192 15.4314 13.4892 15.6504 13.6728Z" fill="white"/>
<path d="M32.0707 8.10215C31.7002 8.47907 31.1998 8.3094 30.7692 8.37061C29.5311 8.54887 28.2811 8.6423 27.0343 8.76365C25.9615 8.86781 24.8866 8.96338 23.8127 9.06218C24.1317 8.65519 24.5752 8.43504 25.0509 8.30189C25.5545 8.16014 26.0743 8.09356 26.6048 8.09785C28.426 8.10859 30.2484 8.10215 32.0707 8.10215Z" fill="white"/>
<path d="M9.50781 18.6704C11.5524 18.4556 13.5949 18.2065 15.6492 18.0938C15.6492 18.286 15.6492 18.4782 15.6492 18.6704C15.3271 18.897 14.9405 18.8519 14.585 18.8852C13.0601 19.0259 11.5396 19.2192 10.0115 19.3287C9.83534 19.3416 9.6603 19.3759 9.50889 19.2471C9.50781 19.0538 9.50781 18.8626 9.50781 18.6704Z" fill="white"/>
<path d="M9.50781 19.2457C11.0016 19.0878 12.4921 18.9042 13.989 18.7839C14.541 18.7399 15.0897 18.611 15.6492 18.669C15.6492 18.8613 15.6492 19.0535 15.6492 19.2457C15.326 19.4648 14.9437 19.4379 14.585 19.4723C13.0902 19.6151 11.5965 19.7762 10.1017 19.9212C9.89333 19.9416 9.68607 19.9781 9.50889 19.8224C9.50889 19.6301 9.50889 19.4379 9.50781 19.2457Z" fill="white"/>
<path d="M15.6484 22.4161C15.6484 22.6083 15.6484 22.8006 15.6484 22.9928C15.0278 23.3117 14.3383 23.2376 13.6801 23.3128C12.5063 23.447 11.3272 23.548 10.1503 23.6607C9.92799 23.6822 9.70355 23.738 9.51025 23.5694C9.51025 23.3772 9.51025 23.185 9.51025 22.9928C10.0719 22.6567 10.7151 22.749 11.3197 22.6771C12.5332 22.5332 13.752 22.4322 14.9665 22.3023C15.2039 22.2776 15.4444 22.2411 15.6484 22.4161Z" fill="white"/>
<path d="M15.6504 14.8265C15.6504 15.0187 15.6504 15.2109 15.6504 15.4032C15.3282 15.6394 14.9395 15.5696 14.5851 15.604C13.0452 15.7543 11.5096 15.9487 9.96537 16.0518C9.80644 16.0625 9.64536 16.0926 9.50684 15.9788C9.50684 15.7865 9.50684 15.5943 9.50684 15.4021C9.64644 15.255 9.82362 15.1948 10.0201 15.1755C11.6685 15.0166 13.319 14.8759 14.9663 14.6933C15.2015 14.6676 15.4474 14.6525 15.6504 14.8265Z" fill="white"/>
<path d="M15.6493 15.7877C15.6493 15.9799 15.6493 16.1721 15.6493 16.3643C15.3272 16.6006 14.9384 16.5297 14.583 16.5662C13.0431 16.7252 11.5042 16.8927 9.96215 17.028C9.80107 17.0419 9.64214 17.0559 9.50684 16.941C9.50684 16.7488 9.50684 16.5566 9.50684 16.3643C9.6851 16.1732 9.92027 16.1453 10.163 16.1259C11.7029 16.0014 13.2385 15.8328 14.7752 15.6749C15.0737 15.6449 15.3809 15.5783 15.6493 15.7877Z" fill="white"/>
<path d="M15.6492 17.4205C14.2543 17.457 12.8733 17.6427 11.4891 17.7866C10.8287 17.8554 10.1629 17.8704 9.50781 17.996C9.50781 17.8038 9.50781 17.6116 9.50781 17.4194C9.65923 17.2572 9.85682 17.2068 10.0684 17.1874C11.6856 17.0382 13.3018 16.8728 14.9179 16.7139C15.1692 16.6892 15.4302 16.6591 15.6492 16.8427C15.6492 17.036 15.6492 17.2282 15.6492 17.4205Z" fill="white"/>
<path d="M15.6504 12.6168C15.6504 12.809 15.6504 13.0012 15.6504 13.1934C15.2949 13.4512 14.8761 13.3159 14.4895 13.3685C13.1172 13.5575 11.7351 13.6563 10.3573 13.8045C10.0781 13.8345 9.78604 13.8818 9.50684 13.769C9.50684 13.5768 9.50684 13.3846 9.50684 13.1924C9.6851 13.0023 9.92027 12.9733 10.163 12.954C11.7029 12.8294 13.2396 12.6608 14.7763 12.503C15.0748 12.4729 15.3809 12.4063 15.6504 12.6168Z" fill="white"/>
<path d="M15.6481 19.6301C15.6481 19.8223 15.6481 20.0145 15.6481 20.2068C15.5354 20.3099 15.3958 20.3335 15.2508 20.3474C13.5047 20.5107 11.7608 20.6964 10.0136 20.85C9.84071 20.865 9.66245 20.9091 9.50781 20.7834C9.50781 20.5912 9.50781 20.399 9.50889 20.2068C10.1296 19.8878 10.819 19.9619 11.4783 19.8868C12.6521 19.7525 13.829 19.6301 15.0081 19.5377C15.2315 19.5206 15.4549 19.4615 15.6481 19.6301Z" fill="white"/>
<path d="M35.7165 11.7505C35.375 11.5722 35.0271 11.7451 34.6931 11.7687C33.5881 11.8471 32.4885 12.006 31.3856 12.1177C30.8176 12.1746 30.2452 12.1961 29.6739 12.2326C29.6728 12.1682 29.6707 12.1038 29.6696 12.0404C29.6138 11.8901 29.3797 12.0146 29.3335 11.7988C30.0884 11.7183 30.8337 11.6366 31.58 11.5604C32.7892 11.438 33.9994 11.3231 35.2075 11.1942C35.3611 11.1781 35.4889 11.2028 35.6177 11.2704C35.651 11.4305 35.6843 11.5905 35.7165 11.7505Z" fill="white"/>
<path d="M9.50684 13.7695C9.90631 13.5537 10.3573 13.646 10.7718 13.616C12.3998 13.4946 14.0117 13.1778 15.6504 13.194C15.6504 13.354 15.6504 13.514 15.6504 13.674C14.2877 13.7158 12.9389 13.8995 11.5848 14.0391C10.8921 14.111 10.1963 14.1454 9.50684 14.2506C9.50684 14.0906 9.50684 13.9295 9.50684 13.7695Z" fill="white"/>
<path d="M15.6495 20.5921C15.6495 20.7521 15.6495 20.9121 15.6495 21.0721C15.0288 21.3911 14.3383 21.3127 13.6801 21.3932C12.5074 21.535 11.3272 21.6284 10.1503 21.7401C9.92799 21.7616 9.70355 21.8174 9.51025 21.6488C9.51025 21.4888 9.51025 21.3288 9.51025 21.1688C10.0504 20.8123 10.6808 20.9239 11.2703 20.8498C12.4988 20.6941 13.737 20.6147 14.9687 20.4794C15.2039 20.4525 15.4444 20.4171 15.6495 20.5921Z" fill="white"/>
<path d="M15.6483 21.5534C15.6483 21.7134 15.6483 21.8734 15.6483 22.0334C15.3251 22.2525 14.9438 22.2267 14.5852 22.26C13.0904 22.3953 11.6009 22.5811 10.104 22.6938C9.89777 22.7089 9.68944 22.7669 9.50903 22.6101C9.50903 22.4501 9.50903 22.2901 9.50903 22.1301C10.0105 21.7607 10.613 21.8723 11.1692 21.8133C12.402 21.6812 13.637 21.5663 14.8708 21.4407C15.1382 21.4127 15.412 21.359 15.6483 21.5534Z" fill="white"/>
<path d="M15.6483 23.473C15.6483 23.633 15.6483 23.793 15.6483 23.953C15.0276 24.2719 14.3382 24.1978 13.6788 24.273C12.5051 24.4072 11.326 24.5082 10.1491 24.6209C9.92677 24.6424 9.70233 24.6983 9.50903 24.5297C9.50903 24.3697 9.50903 24.2096 9.50903 24.0496C10.0481 23.6931 10.6795 23.8048 11.268 23.7307C12.4965 23.575 13.7347 23.4955 14.9653 23.3602C15.2037 23.3334 15.4443 23.2979 15.6483 23.473Z" fill="white"/>
<path d="M29.675 13.0005C30.8853 12.8781 32.0945 12.7514 33.3047 12.6365C34.1391 12.557 34.9746 12.4947 35.81 12.4238C35.8122 12.5838 35.8143 12.7428 35.8175 12.9028C34.6062 13.0241 33.3949 13.1508 32.1836 13.2668C31.3481 13.3463 30.5116 13.4107 29.675 13.4816C29.6761 13.3205 29.675 13.1605 29.675 13.0005Z" fill="white"/>
<path d="M15.6484 24.7228C15.6484 24.8828 15.6484 25.0428 15.6484 25.2028C15.0653 25.5421 14.4028 25.4476 13.7767 25.5228C12.5708 25.6667 11.3605 25.7773 10.1503 25.8858C9.92584 25.9062 9.70247 25.947 9.51025 25.7795C9.51025 25.6194 9.51025 25.4594 9.51025 25.2994C10.1309 24.9805 10.8204 25.0482 11.4786 24.9805C12.6545 24.8592 13.8304 24.7335 15.0073 24.6304C15.2307 24.6111 15.4541 24.5542 15.6484 24.7228Z" fill="white"/>
<path d="M15.6503 14.8277C14.2876 14.8685 12.9399 15.0682 11.5857 15.1939C10.892 15.2583 10.1972 15.2969 9.50781 15.4043C9.50781 15.2443 9.50781 15.0843 9.50781 14.9243C11.5524 14.6977 13.596 14.4636 15.6503 14.3477C15.6503 14.5066 15.6503 14.6666 15.6503 14.8277Z" fill="white"/>
<path d="M9.51025 25.7798C10.7559 25.6907 11.9973 25.5661 13.2376 25.419C14.0387 25.3234 14.8441 25.274 15.6484 25.2031C15.6484 25.3631 15.6484 25.5231 15.6484 25.6831C14.435 25.8056 13.2226 25.9473 12.007 26.0429C11.1683 26.1084 10.335 26.1846 9.51025 26.3554C9.51025 26.1632 9.51025 25.9709 9.51025 25.7798Z" fill="white"/>
<path d="M15.6492 16.8446C14.2876 16.8865 12.9377 17.0702 11.5847 17.2098C10.8931 17.2817 10.1962 17.3139 9.50781 17.4213C9.50781 17.2613 9.50781 17.1013 9.50781 16.9413C10.9693 16.7834 12.4287 16.5987 13.8945 16.4795C14.4776 16.4323 15.0586 16.3013 15.6503 16.3646C15.6492 16.5236 15.6492 16.6836 15.6492 16.8446Z" fill="white"/>
<path d="M15.6483 23.4733C14.3704 23.557 13.0968 23.6859 11.8243 23.8341C11.0543 23.9243 10.2811 23.9791 9.50903 24.0489C9.50903 23.8889 9.50903 23.7289 9.50903 23.5689C10.7193 23.4475 11.9295 23.3197 13.1408 23.2048C13.9752 23.1253 14.8118 23.062 15.6472 22.9922C15.6483 23.1533 15.6483 23.3133 15.6483 23.4733Z" fill="white"/>
<path d="M15.6483 21.5534C14.3672 21.6017 13.0968 21.7767 11.8243 21.9152C11.0543 21.999 10.2811 22.0591 9.50903 22.1289C9.50903 21.9689 9.50903 21.8089 9.50903 21.6489C10.7193 21.5276 11.9295 21.3998 13.1408 21.2849C13.9752 21.2054 14.8118 21.1421 15.6483 21.0723C15.6483 21.2323 15.6483 21.3934 15.6483 21.5534Z" fill="white"/>
<path d="M15.6505 12.6167C14.3189 12.6565 13.0013 12.8379 11.6804 12.9872C10.9577 13.0688 10.2307 13.1257 9.50586 13.1934C9.50586 13.0656 9.50586 12.9367 9.50586 12.809C9.92252 12.5953 10.3843 12.7091 10.8224 12.6447C11.936 12.4814 13.0689 12.4589 14.1868 12.3139C14.6744 12.2505 15.1758 12.3032 15.6494 12.1367C15.6505 12.2957 15.6505 12.4567 15.6505 12.6167Z" fill="white"/>
<path d="M15.6495 20.5915C14.3716 20.6752 13.098 20.8041 11.8255 20.9534C11.0555 21.0436 10.2824 21.0983 9.51025 21.1681C9.51025 21.0403 9.51025 20.9115 9.51025 20.7837C11.5538 20.556 13.5963 20.3198 15.6506 20.207C15.6495 20.3348 15.6495 20.4637 15.6495 20.5915Z" fill="white"/>
<path d="M15.6483 19.6297C14.4381 19.751 13.2278 19.8777 12.0165 19.9926C11.1821 20.0721 10.3456 20.1354 9.50903 20.2052C9.50903 20.0775 9.50903 19.9486 9.50903 19.8208C10.6881 19.6984 11.8662 19.5695 13.0463 19.4578C13.9129 19.3752 14.7817 19.315 15.6494 19.2441C15.6483 19.3741 15.6483 19.5019 15.6483 19.6297Z" fill="white"/>
<path d="M15.6484 24.7231C14.4704 24.8444 13.2924 24.9733 12.1122 25.0861C11.2456 25.1687 10.3779 25.2289 9.51025 25.2998C9.51025 25.172 9.51025 25.0431 9.51025 24.9153C10.088 24.577 10.7463 24.663 11.367 24.5985C12.5665 24.4729 13.766 24.3515 14.9665 24.2388C15.2039 24.2162 15.4423 24.1615 15.6484 24.3397C15.6484 24.4675 15.6484 24.5953 15.6484 24.7231Z" fill="white"/>
<path d="M9.50903 22.6099C10.6881 22.4874 11.8662 22.3586 13.0453 22.2469C13.9119 22.1642 14.7806 22.1041 15.6483 22.0332C15.6483 22.161 15.6483 22.2899 15.6483 22.4176C14.4005 22.4896 13.1612 22.6399 11.9209 22.7785C11.1198 22.8687 10.3134 22.9234 9.51011 22.9932C9.50903 22.8665 9.50903 22.7377 9.50903 22.6099Z" fill="white"/>
<path d="M15.6484 24.3376C14.4382 24.4589 13.228 24.5856 12.0166 24.7005C11.1823 24.78 10.3457 24.8434 9.51025 24.9142C9.51025 24.7864 9.51025 24.6576 9.51025 24.5298C10.7205 24.4084 11.9307 24.2807 13.1421 24.1658C13.9764 24.0863 14.813 24.0229 15.6484 23.9531C15.6484 24.082 15.6484 24.2098 15.6484 24.3376Z" fill="white"/>
<path d="M15.6493 15.7868C14.3188 15.8265 13.0012 16.008 11.6803 16.1573C10.9576 16.2389 10.2317 16.2958 9.50684 16.3635C9.50684 16.2357 9.50684 16.1068 9.50684 15.979C11.5536 15.7803 13.594 15.5054 15.6493 15.4023C15.6504 15.5312 15.6493 15.659 15.6493 15.7868Z" fill="white"/>
<path d="M25.8264 21.6478C23.786 21.6478 21.7457 21.6478 19.7054 21.6478C19.7021 21.5511 19.7 21.4534 19.6968 21.3568C19.7677 21.244 19.685 21.0636 19.8546 20.9938C20.9092 20.8284 21.9744 20.7522 23.0365 20.6523C23.814 20.5793 24.5882 20.473 25.3689 20.4365C25.5257 20.4289 25.6878 20.386 25.8307 20.4955C25.8296 20.88 25.8285 21.2633 25.8264 21.6478Z" fill="white"/>
<path d="M19.6937 16.9383C19.6937 16.6817 19.6926 16.4261 19.6926 16.1694C19.7442 15.9536 19.8924 15.8655 20.1039 15.843C21.8908 15.6497 23.682 15.4854 25.4711 15.3082C25.6021 15.2953 25.7256 15.3157 25.8297 15.4038C25.8297 15.6604 25.8297 15.916 25.8297 16.1727C25.4925 16.5088 25.0447 16.4014 24.6453 16.4444C22.9947 16.6215 21.3464 16.803 19.6937 16.9383Z" fill="white"/>
<path d="M19.6903 14.9224C19.6903 14.6979 19.6892 14.4724 19.6892 14.248C19.7912 14.044 19.9867 14.03 20.1789 14.0074C21.9228 13.8034 23.6732 13.6541 25.4204 13.4845C25.5675 13.4705 25.7082 13.4737 25.8274 13.5768C25.8274 13.8013 25.8274 14.0257 25.8274 14.2491C25.4322 14.6163 24.9178 14.4939 24.4614 14.5444C23.0418 14.7033 21.6179 14.8204 20.1982 14.9718C20.0285 14.9922 19.8492 15.0405 19.6903 14.9224Z" fill="white"/>
<path d="M25.8274 15.4043C24.3616 15.5632 22.898 15.7393 21.43 15.8682C21.0037 15.9058 20.5763 15.953 20.1489 15.9734C19.9588 15.982 19.8085 16.0196 19.6914 16.1699C19.6914 15.9144 19.6914 15.6588 19.6914 15.4043C19.9341 15.138 20.2713 15.1723 20.5806 15.139C22.1591 14.9672 23.7388 14.8201 25.3206 14.6773C25.4903 14.6622 25.6696 14.6128 25.8274 14.732C25.8274 14.9554 25.8274 15.1798 25.8274 15.4043Z" fill="white"/>
<path d="M19.7805 21.071C19.7773 21.173 19.7977 21.2815 19.6978 21.3556C19.6978 21.0356 19.6968 20.7156 19.6968 20.3955C19.7687 20.2828 19.686 20.1024 19.8546 20.0326C20.9092 19.8661 21.9755 19.7974 23.0365 19.6879C23.8129 19.6073 24.5871 19.4989 25.3689 19.4742C25.5257 19.4688 25.6878 19.4248 25.8307 19.5343C25.8307 19.7265 25.8317 19.9188 25.8317 20.111C25.3689 20.4922 24.7922 20.3676 24.2703 20.4235C22.9731 20.5631 21.6727 20.679 20.3744 20.8208C20.1499 20.8444 19.9266 20.8659 19.7805 21.071Z" fill="white"/>
<path d="M19.6882 13.7686C19.6882 13.5775 19.6882 13.3853 19.6882 13.1941C20.0201 12.8666 20.4657 12.9321 20.863 12.8934C22.3503 12.7474 23.8344 12.5734 25.3239 12.4553C25.4967 12.4413 25.6739 12.3952 25.8275 12.5219C25.8275 12.7141 25.8275 12.9063 25.8275 13.0985C25.6106 13.2983 25.3378 13.3122 25.0661 13.3337C23.538 13.4551 22.0164 13.6301 20.4915 13.7815C20.2241 13.8084 19.9545 13.8782 19.6882 13.7686Z" fill="white"/>
<path d="M19.7805 20.1103C19.7773 20.2124 19.7977 20.3219 19.6968 20.3949C19.6968 20.0427 19.6968 19.6894 19.6968 19.3372C19.7419 19.1449 19.8611 19.0397 20.0608 19.0204C21.895 18.841 23.728 18.6434 25.5643 18.4877C25.6621 18.4791 25.7523 18.5103 25.8307 18.5726C25.8307 18.7326 25.8307 18.8926 25.8307 19.0526C25.7115 19.1965 25.5568 19.2609 25.3732 19.2781C23.756 19.4317 22.1409 19.6174 20.5226 19.7603C20.2165 19.7893 19.9599 19.8494 19.7805 20.1103Z" fill="white"/>
<path d="M25.8275 14.73C25.0103 14.8256 24.1942 14.9383 23.3759 15.0135C22.1463 15.1273 20.9125 15.2079 19.6915 15.4023C19.6915 15.2422 19.6904 15.0822 19.6904 14.9222C20.4174 14.7418 21.1659 14.7322 21.9037 14.643C23.2084 14.4841 24.5196 14.3778 25.8275 14.25C25.8275 14.41 25.8275 14.57 25.8275 14.73Z" fill="white"/>
<path d="M19.6957 18.8576C19.6957 18.6976 19.6957 18.5376 19.6946 18.3776C19.7483 18.093 19.9738 18.0694 20.2004 18.0404C21.4471 17.8814 22.7003 17.7902 23.9503 17.6645C24.4088 17.6184 24.8663 17.5593 25.3281 17.5303C25.5031 17.5196 25.6781 17.4841 25.8285 17.6119C25.8285 17.7719 25.8285 17.9319 25.8285 18.0919C25.4913 18.428 25.0446 18.3196 24.6451 18.3647C22.9978 18.5494 21.3462 18.7019 19.6957 18.8576Z" fill="white"/>
<path d="M19.6956 18.8583C20.0779 18.5179 20.5697 18.6489 21.0057 18.5899C22.2299 18.4223 23.4627 18.3214 24.6933 18.2076C25.0724 18.1732 25.4557 18.1893 25.8294 18.0938C25.8294 18.2538 25.8294 18.4138 25.8305 18.5738C24.5526 18.7016 23.2758 18.8315 21.9979 18.9582C21.3353 19.0237 20.6728 19.0935 20.0091 19.1461C19.8566 19.1579 19.7911 19.26 19.6956 19.3384C19.6956 19.1783 19.6956 19.0183 19.6956 18.8583Z" fill="white"/>
<path d="M19.6882 13.7688C20.3454 13.5616 21.0359 13.5841 21.7082 13.4982C23.0763 13.3242 24.454 13.2265 25.8275 13.0977C25.8275 13.2577 25.8275 13.4177 25.8275 13.5777C24.3305 13.7355 22.8346 13.9073 21.3355 14.0459C20.7836 14.0963 20.2295 14.1082 19.6893 14.2488C19.6893 14.0899 19.6893 13.9288 19.6882 13.7688Z" fill="white"/>
<path d="M19.6937 17.8966C19.6937 17.7688 19.6926 17.6399 19.6926 17.5122C19.7238 17.2383 19.8666 17.1116 20.1522 17.0837C21.8919 16.9162 23.6283 16.7143 25.3712 16.579C25.5301 16.5672 25.6891 16.5371 25.8276 16.6509C25.8276 16.8109 25.8276 16.9709 25.8276 17.1309C25.4904 17.4671 25.0437 17.364 24.6431 17.4026C22.9947 17.5658 21.3464 17.7506 19.6937 17.8966Z" fill="white"/>
<path d="M25.8284 12.5205C24.5516 12.6483 23.2737 12.7696 21.998 12.9071C21.2269 12.9897 20.458 13.0971 19.6881 13.1927C19.6881 13.0638 19.687 12.9361 19.687 12.8072C20.0457 12.5495 20.4806 12.5785 20.879 12.5334C22.4211 12.3615 23.9696 12.2477 25.5127 12.092C25.9176 12.0512 25.7994 12.3229 25.8284 12.5205Z" fill="white"/>
<path d="M25.8287 16.6519C24.5229 16.7797 23.217 16.9075 21.9112 17.0374C21.2819 17.0997 20.6537 17.1813 20.0234 17.221C19.8011 17.235 19.8043 17.4197 19.6926 17.5131C19.6926 17.322 19.6926 17.1298 19.6926 16.9386C20.0277 16.5982 20.4851 16.741 20.8739 16.6852C21.9842 16.5241 23.1097 16.4693 24.2275 16.3619C24.7623 16.3104 25.295 16.2363 25.8276 16.1719C25.8287 16.3308 25.8287 16.4908 25.8287 16.6519Z" fill="white"/>
<path d="M19.6936 17.8965C20.0759 17.5561 20.5677 17.6871 21.0037 17.627C22.2279 17.4595 23.4607 17.3585 24.6924 17.2447C25.0715 17.2093 25.4559 17.2275 25.8286 17.1309C25.8286 17.2909 25.8286 17.4509 25.8286 17.6109C24.3316 17.7698 22.8357 17.9481 21.3366 18.0737C20.9253 18.1081 20.5173 18.1951 20.1038 18.1822C19.9223 18.1768 19.801 18.2487 19.6947 18.3755C19.6947 18.2165 19.6947 18.0565 19.6936 17.8965Z" fill="white"/>
<path d="M19.7806 20.1094C19.743 19.7647 19.8816 19.6434 20.2413 19.6197C21.7619 19.5209 23.2782 19.3695 24.7891 19.1655C25.1349 19.1182 25.4936 19.188 25.8308 19.0527C25.8308 19.2127 25.8308 19.3727 25.8308 19.5328C25.0458 19.6262 24.2629 19.7604 23.4758 19.8034C22.2398 19.871 21.0209 20.118 19.7806 20.1094Z" fill="white"/>
<path d="M19.7805 21.0705C19.7913 20.903 19.7365 20.7097 20.0114 20.686C21.038 20.5958 22.0635 20.4992 23.0891 20.3972C24.004 20.3059 24.9168 20.206 25.8306 20.1094C25.8306 20.2372 25.8306 20.366 25.8306 20.4938C25.0779 20.5872 24.3262 20.7279 23.5712 20.7623C22.303 20.8203 21.052 21.078 19.7805 21.0705Z" fill="white"/>
<path d="M20.5483 41.5382C20.5483 41.506 20.5387 41.4706 20.5494 41.4426C20.6547 41.1957 20.3046 40.7962 20.7416 40.6823C21.2292 40.5556 21.8316 40.91 21.9594 41.3213C22.0861 41.7294 21.9175 42.1353 21.5309 42.3329C21.3162 42.4424 21.0853 42.4886 20.8404 42.5015C20.6096 42.5133 20.5236 42.4446 20.5441 42.2083C20.5634 41.9871 20.5483 41.7627 20.5483 41.5382Z" fill="white"/>
<path d="M35.8111 16.3654C35.8111 16.6221 35.8111 16.8777 35.8111 17.1343C35.2666 17.4898 34.6331 17.3877 34.0403 17.4511C32.8333 17.58 31.6241 17.6981 30.4149 17.8151C30.1615 17.8398 29.9038 17.9032 29.6815 17.711C29.6815 17.4543 29.6804 17.1987 29.6804 16.9421C29.9682 16.7241 30.3204 16.7542 30.6458 16.723C32.1868 16.5759 33.7257 16.4127 35.2666 16.2591C35.461 16.2398 35.6511 16.2215 35.8111 16.3654Z" fill="white"/>
<path d="M35.811 18.6695C35.811 18.9262 35.811 19.1817 35.811 19.4384C35.1914 19.7573 34.502 19.68 33.8448 19.7573C32.6883 19.8937 31.5285 20.0011 30.3687 20.1117C30.1314 20.1343 29.8908 20.1998 29.6836 20.0151C29.6836 19.7584 29.6836 19.5028 29.6836 19.2462C29.9531 19.0346 30.2817 19.0368 30.5964 19.0121C32.1084 18.8918 33.615 18.7135 35.1248 18.5696C35.3632 18.5471 35.6038 18.4902 35.811 18.6695Z" fill="white"/>
<path d="M35.8124 14.4436C35.8124 14.6991 35.8124 14.9558 35.8124 15.2114C35.2293 15.5475 34.5678 15.453 33.9417 15.5303C32.7379 15.6807 31.5255 15.7655 30.3185 15.8911C30.0951 15.9148 29.8707 15.9566 29.6795 15.787C29.6795 15.5314 29.6785 15.2747 29.6785 15.0181C29.9673 14.8055 30.3142 14.8151 30.6428 14.7893C32.1559 14.6691 33.6625 14.4962 35.1723 14.3491C35.3957 14.3287 35.6191 14.2739 35.8124 14.4436Z" fill="white"/>
<path d="M35.8122 22.5133C35.8122 22.7377 35.8122 22.9622 35.8122 23.1855C35.6586 23.381 35.4406 23.4057 35.213 23.425C33.6913 23.5539 32.1718 23.7171 30.6523 23.8717C30.3258 23.905 29.9854 23.992 29.6858 23.7633C29.6858 23.5388 29.6858 23.3144 29.6858 23.091C29.9736 22.873 30.3258 22.9031 30.6501 22.872C32.19 22.7249 33.7289 22.5627 35.2677 22.4081C35.4621 22.3877 35.6522 22.3705 35.8122 22.5133Z" fill="white"/>
<path d="M29.6836 20.0161C30.8917 19.8937 32.0998 19.7659 33.3089 19.651C34.1423 19.5715 34.9767 19.5093 35.811 19.4395C35.811 19.6639 35.811 19.8873 35.811 20.1117C35.5973 20.3125 35.3257 20.3265 35.055 20.349C33.5366 20.4714 32.0225 20.6422 30.5062 20.7925C30.2248 20.8204 29.9359 20.8978 29.6847 20.6884C29.6847 20.4639 29.6836 20.2406 29.6836 20.0161Z" fill="white"/>
<path d="M29.6859 23.7622C31.0465 23.7321 32.3909 23.5356 33.7408 23.3928C34.4313 23.3198 35.1282 23.3123 35.8123 23.1855C35.8123 23.41 35.8123 23.6333 35.8123 23.8578C35.6941 24.0017 35.5395 24.0693 35.3559 24.0865C33.6925 24.2422 32.0301 24.4173 30.3667 24.5698C30.1337 24.5912 29.8846 24.6159 29.6848 24.4344C29.6859 24.2111 29.6859 23.9866 29.6859 23.7622Z" fill="white"/>
<path d="M35.8109 16.3656C34.634 16.487 33.457 16.6137 32.279 16.7264C31.4135 16.8091 30.5469 16.8714 29.6803 16.9423C29.6803 16.7179 29.6792 16.4934 29.6792 16.269C29.9681 16.0564 30.3149 16.066 30.6435 16.0403C32.1555 15.9221 33.6611 15.7363 35.172 15.6C35.3943 15.5796 35.6176 15.5227 35.8109 15.6923C35.8109 15.9168 35.8109 16.1412 35.8109 16.3656Z" fill="white"/>
<path d="M35.8122 14.4441C34.6342 14.5654 33.4572 14.6932 32.2781 14.8049C31.4126 14.8876 30.5449 14.9488 29.6783 15.0207C29.6783 14.7963 29.6772 14.5719 29.6772 14.3474C29.9822 14.1284 30.3495 14.1552 30.691 14.1241C32.2169 13.9855 33.7386 13.7998 35.2656 13.6795C35.4578 13.6645 35.649 13.6279 35.8122 13.7718C35.8122 13.9952 35.8122 14.2196 35.8122 14.4441Z" fill="white"/>
<path d="M35.8133 24.4343C35.8133 24.6265 35.8133 24.8188 35.8133 25.011C35.6952 25.1538 35.5406 25.2225 35.3569 25.2397C33.6935 25.3954 32.0312 25.5705 30.3667 25.724C30.1337 25.7455 29.8846 25.7713 29.6848 25.5887C29.6848 25.3965 29.6848 25.2043 29.6848 25.0121C29.7933 24.9004 29.9361 24.8843 30.08 24.8714C31.8229 24.7049 33.5636 24.5224 35.3075 24.3688C35.4815 24.3516 35.6587 24.3087 35.8133 24.4343Z" fill="white"/>
<path d="M35.8112 21.3611C35.8112 21.5533 35.8112 21.7456 35.8112 21.9378C35.328 22.3072 34.7395 22.1869 34.2015 22.2513C32.9418 22.4006 31.6758 22.5112 30.4118 22.6315C30.1616 22.6551 29.9028 22.7056 29.6848 22.5144C29.6848 22.3222 29.6848 22.13 29.6848 21.9378C29.9715 21.7123 30.327 21.7627 30.6491 21.7316C32.2191 21.5834 33.7859 21.4148 35.3569 21.2731C35.5191 21.2591 35.677 21.2441 35.8112 21.3611Z" fill="white"/>
<path d="M35.8111 17.613C35.8111 17.8052 35.8111 17.9974 35.8111 18.1897C35.2678 18.5462 34.6331 18.4334 34.0403 18.5086C32.8204 18.6632 31.5909 18.7438 30.3677 18.8769C30.1304 18.9027 29.8877 18.9478 29.6826 18.7663C29.6826 18.5741 29.6826 18.3819 29.6826 18.1897C29.9704 17.9652 30.3259 18.0168 30.648 17.9846C32.2169 17.8256 33.7858 17.6699 35.3569 17.526C35.518 17.511 35.6758 17.4949 35.8111 17.613Z" fill="white"/>
<path d="M35.8132 24.4341C33.774 24.6607 31.7358 24.8969 29.6858 25.0107C29.6858 24.8185 29.6858 24.6263 29.6858 24.4341C31.0775 24.4019 32.4542 24.2129 33.8363 24.0668C34.4945 23.997 35.1593 23.9831 35.8132 23.8574C35.8132 24.0496 35.8132 24.2419 35.8132 24.4341Z" fill="white"/>
<path d="M29.6858 22.5142C31.0109 22.4508 32.3275 22.3026 33.644 22.1437C34.3646 22.0567 35.0895 22.0052 35.8122 21.9375C35.8122 22.1297 35.8122 22.3219 35.8132 22.5142C34.6363 22.6355 33.4604 22.7622 32.2835 22.875C31.419 22.9577 30.5524 23.02 29.6869 23.0919C29.6858 22.8986 29.6858 22.7064 29.6858 22.5142Z" fill="white"/>
<path d="M29.6858 25.5884C31.0775 25.5562 32.4553 25.3672 33.8363 25.2211C34.4945 25.1513 35.1593 25.1374 35.8132 25.0117C35.8132 25.2039 35.8143 25.3962 35.8143 25.5884C34.4612 25.6099 33.1264 25.8279 31.783 25.9471C31.0872 26.0083 30.3902 26.1253 29.6858 26.0695C29.6858 25.9084 29.6858 25.7484 29.6858 25.5884Z" fill="white"/>
<path d="M35.8111 17.6128C34.3206 17.7707 32.8312 17.9339 31.3407 18.0821C30.7898 18.1369 30.2357 18.1551 29.6837 18.1895C29.6837 18.0295 29.6837 17.8695 29.6826 17.7095C30.9283 17.6343 32.1654 17.4861 33.4046 17.3465C34.2046 17.2563 35.009 17.2026 35.8111 17.1328C35.8111 17.2928 35.8111 17.4528 35.8111 17.6128Z" fill="white"/>
<path d="M35.8112 20.4954C35.8112 20.6554 35.8112 20.8154 35.8112 20.9754C35.328 21.3448 34.7395 21.2246 34.2015 21.289C32.9408 21.4383 31.6736 21.5295 30.4118 21.6691C30.1616 21.6971 29.9028 21.7432 29.6848 21.5521C29.6848 21.3921 29.6848 21.2321 29.6848 21.0721C29.9715 20.8466 30.327 20.8981 30.6502 20.8659C32.2191 20.7091 33.787 20.5405 35.358 20.4073C35.5191 20.3945 35.677 20.3784 35.8112 20.4954Z" fill="white"/>
<path d="M35.8109 15.6918C34.634 15.8132 33.457 15.941 32.279 16.0526C31.4135 16.1353 30.5458 16.1965 29.6803 16.2685C29.6803 16.1085 29.6803 15.9485 29.6792 15.7885C30.9206 15.6661 32.1609 15.5404 33.4033 15.4234C34.2055 15.3471 35.0088 15.2827 35.812 15.2129C35.812 15.3718 35.8109 15.5318 35.8109 15.6918Z" fill="white"/>
<path d="M29.6826 18.7661C30.9584 18.6824 32.2298 18.5513 33.4991 18.4032C34.2669 18.314 35.0401 18.2593 35.8101 18.1895C35.8101 18.3495 35.8101 18.5095 35.8101 18.6695C34.602 18.7908 33.3939 18.9154 32.1847 19.0314C31.3514 19.1108 30.517 19.1753 29.6826 19.2472C29.6837 19.0872 29.6837 18.9272 29.6826 18.7661Z" fill="white"/>
<path d="M35.8133 13.7699C34.6353 13.8912 33.4572 14.019 32.2792 14.1307C31.4137 14.2134 30.5449 14.2746 29.6783 14.3454C29.6783 14.2177 29.6772 14.0888 29.6772 13.961C30.8574 13.8386 32.0376 13.714 33.2188 13.5937C33.9437 13.5196 34.6696 13.4552 35.3945 13.3822C35.6844 13.3543 35.8659 13.4316 35.8133 13.7699Z" fill="white"/>
<path d="M29.6848 21.5532C31.01 21.4899 32.3254 21.3245 33.6431 21.1817C34.3647 21.1033 35.0885 21.0442 35.8112 20.9766C35.8112 21.1044 35.8112 21.2332 35.8112 21.361C34.3217 21.5189 32.8323 21.6821 31.3418 21.8303C30.792 21.885 30.2379 21.9033 29.6859 21.9377C29.6859 21.8099 29.6848 21.681 29.6848 21.5532Z" fill="white"/>
<path d="M35.8112 20.4958C34.3217 20.6536 32.8323 20.8169 31.3418 20.965C30.792 21.0198 30.2379 21.0381 29.6848 21.0724C29.6848 20.9446 29.6848 20.8158 29.6848 20.688C30.9638 20.6343 32.2299 20.4636 33.5002 20.324C34.2691 20.2402 35.0402 20.1811 35.8112 20.1113C35.8112 20.2391 35.8112 20.3669 35.8112 20.4958Z" fill="white"/>
<path d="M29.7643 42.1927C29.4733 42.1927 29.2091 42.1927 28.917 42.1927C29.004 41.8502 29.1575 41.5474 29.3326 41.2188C29.5269 41.5312 29.6461 41.8459 29.7643 42.1927Z" fill="white"/>
<path d="M23.0064 32.0703C23.1621 32.4032 23.379 32.6717 23.3017 32.9219C23.2501 33.0883 22.9119 32.9627 22.6423 32.9874C22.7648 32.6803 22.8711 32.4118 23.0064 32.0703Z" fill="#F6FAF6"/>
<path d="M61.7939 34.6817C61.5599 36.883 59.9744 38.5625 57.9624 38.7872C55.3316 39.0828 53.3289 38.1514 52.7886 36.1118C52.1882 33.8458 52.1852 31.486 52.7963 29.2185C53.3351 27.2235 55.6133 26.1536 57.9932 26.56C60.0082 26.9033 61.1704 28.1486 61.7277 30.0605C61.857 30.5039 61.8062 30.7071 61.2998 30.6655C61.018 30.6424 60.7302 30.6393 60.45 30.6655C59.7573 30.7332 59.277 30.6239 58.9553 29.8435C58.5766 28.9245 57.6237 28.6274 56.5739 28.8614C55.6811 29.0599 55.0915 29.6665 55.0468 30.6547C54.9853 32.014 54.9853 33.3794 55.0515 34.7387C55.0992 35.7146 55.7288 36.3488 56.6016 36.5243C57.6453 36.7337 58.6597 36.4104 58.9753 35.5037C59.2663 34.6694 59.7542 34.6248 60.4362 34.6725C60.8857 34.7063 61.3382 34.6817 61.7939 34.6817Z" fill="white"/>
<path d="M97.2471 37.7116C97.3302 37.5823 97.3687 37.5037 97.4226 37.4406C97.8105 36.9896 98.1245 36.4077 98.6109 36.1276C99.122 35.8335 99.6223 36.4308 100.158 36.5555C101.002 36.751 101.836 36.8095 102.678 36.6232C102.975 36.557 103.321 36.4647 103.335 36.0691C103.352 35.6257 102.987 35.4903 102.659 35.4364C101.711 35.2809 100.749 35.2009 99.8024 35.0377C98.4678 34.8068 97.8259 34.1602 97.7397 33.0473C97.6381 31.728 98.2153 30.7352 99.4299 30.3195C101.356 29.6622 103.218 29.9501 105.024 30.8075C105.395 30.983 105.497 31.177 105.144 31.4771C105.038 31.568 104.936 31.6772 104.865 31.7958C104.408 32.5639 103.857 32.7779 102.994 32.3346C102.307 31.982 101.5 32.0405 100.735 32.136C100.409 32.1775 99.9841 32.2222 99.9594 32.647C99.9333 33.1058 100.366 33.1242 100.692 33.1735C101.503 33.292 102.321 33.3752 103.132 33.4983C104.724 33.7431 105.429 34.4189 105.533 35.7689C105.637 37.1112 104.878 38.2257 103.454 38.5844C101.286 39.1293 99.2082 38.8645 97.2471 37.7116Z" fill="white"/>
<path d="M76.2516 31.2573C77.1382 30.2213 78.0172 29.8318 79.1163 30.0042C80.708 30.2551 81.6086 31.1957 81.6994 32.9798C81.7887 34.7347 81.7225 36.4973 81.741 38.2552C81.7456 38.6247 81.6116 38.7217 81.2499 38.7463C79.2826 38.8787 79.2841 38.891 79.2841 36.9052C79.2841 35.8276 79.298 34.7486 79.2795 33.671C79.2626 32.6442 78.7392 32.1347 77.7617 32.1516C76.8242 32.167 76.3362 32.6535 76.3208 33.6648C76.2993 35.1118 76.2978 36.5588 76.3239 38.0059C76.3332 38.5169 76.2531 38.7571 75.6435 38.754C73.9056 38.7447 73.9056 38.7771 73.9056 37.0407C73.9056 34.941 73.921 32.8413 73.8948 30.7416C73.8886 30.2397 73.9872 29.9919 74.5398 30.075C74.7892 30.1135 75.0524 30.1089 75.3033 30.0766C76.0099 29.9857 76.5487 30.0689 76.2516 31.2573Z" fill="white"/>
<path d="M92.7012 38.8379C89.9427 38.8302 88.5265 37.4078 88.5203 34.6323C88.5188 34.1782 88.508 33.7226 88.5526 33.2731C88.7651 31.1457 90.5646 29.7772 92.9214 29.9573C93.9743 30.0373 94.9933 30.2405 95.8585 30.9271C96.2017 31.1995 96.2941 31.4074 95.8923 31.6968C95.6645 31.8615 95.4521 32.0585 95.2674 32.2709C94.9164 32.6758 94.5869 32.6897 94.0974 32.4387C93.0861 31.9215 91.8961 32.1078 91.3435 32.7682C90.817 33.3978 90.7739 35.2142 91.2681 35.9362C91.773 36.6735 93.0845 36.9568 94.0451 36.381C94.6624 36.0101 94.9564 36.1979 95.3736 36.6289C96.3665 37.6572 96.3541 37.8003 95.018 38.4053C94.3745 38.6963 93.6048 38.841 92.7012 38.8379Z" fill="white"/>
<path d="M64.0075 31.9841C64.0075 30.4247 64.0275 28.8653 63.9952 27.3059C63.9844 26.7902 64.1184 26.6348 64.6525 26.6332C66.4166 26.6301 66.4166 26.6055 66.4166 28.3912C66.4166 30.7449 66.4243 33.097 66.4105 35.4507C66.4074 36.0541 66.4813 36.5544 67.2464 36.5252C67.5665 36.5129 67.6297 36.6791 67.6066 36.9424C67.6035 36.9701 67.6158 37.0039 67.605 37.027C67.3433 37.5704 68.1854 38.5818 67.0709 38.708C65.1574 38.9251 64.0522 38.1615 64.0152 36.7469C63.9767 35.1598 64.0075 33.5711 64.0075 31.9841Z" fill="white"/>
<path d="M69.1382 34.3449C69.1382 33.0981 69.152 31.8527 69.1305 30.6074C69.1228 30.2087 69.2382 30.0901 69.6492 30.0717C71.5919 29.9855 71.5904 29.9701 71.5904 31.9081C71.5904 33.9478 71.5735 35.9859 71.6012 38.0256C71.6089 38.572 71.4642 38.7552 70.8931 38.7537C69.1382 38.7521 69.1382 38.7783 69.1382 37.065C69.1382 36.1568 69.1382 35.2516 69.1382 34.3449Z" fill="white"/>
<path d="M86.5022 34.3721C86.5022 35.6189 86.4838 36.8643 86.5115 38.1096C86.5207 38.5715 86.4114 38.7408 85.9096 38.75C84.05 38.7854 84.05 38.807 84.05 36.9751C84.05 34.9078 84.07 32.8404 84.0377 30.773C84.0285 30.2127 84.1932 30.0634 84.7458 30.0665C86.5038 30.0741 86.5038 30.0511 86.5038 31.8213C86.5022 32.6726 86.5022 33.5223 86.5022 34.3721Z" fill="white"/>
<path d="M70.2481 28.9155C69.9372 28.7893 69.3183 29.1895 69.1906 28.703C69.0335 28.0996 69.1521 27.4177 69.189 26.7727C69.1983 26.6234 69.4184 26.6526 69.5538 26.6511C69.9202 26.6465 70.2958 26.6957 70.6545 26.6388C71.4642 26.511 71.6397 26.8681 71.6074 27.6132C71.552 28.9139 71.5935 28.9155 70.2481 28.9155Z" fill="white"/>
<path d="M85.1907 28.9153C84.8643 28.8491 84.2347 29.1062 84.1408 28.7845C83.9669 28.1857 84.0716 27.5037 84.0762 26.8556C84.0777 26.6725 84.2486 26.6601 84.3902 26.654C84.5596 26.6478 84.7289 26.6509 84.8982 26.6494C86.6623 26.6417 86.6469 26.6401 86.5145 28.4581C86.4868 28.8414 86.3529 28.9446 86.0081 28.9199C85.7541 28.8999 85.4986 28.9153 85.1907 28.9153Z" fill="white"/>
<path d="M77.3614 11.5019C76.1545 11.5019 76.1545 11.5019 76.1545 10.315C76.1545 9.23438 76.1545 9.23438 77.5523 9.23438C78.5914 9.23438 78.5914 9.23437 78.5898 10.5059C78.5898 11.5019 78.5898 11.5019 77.3614 11.5019Z" fill="white"/>
<path d="M58.0686 17.3635C58.8722 14.7312 59.6265 12.3282 60.3284 9.91142C60.4839 9.37726 60.7102 9.18023 61.2628 9.22333C61.9109 9.27413 62.5682 9.26181 63.2194 9.22641C63.6781 9.20178 63.7905 9.37111 63.7889 9.80829C63.7735 13.4412 63.772 17.0756 63.7905 20.7101C63.7935 21.1965 63.6442 21.3289 63.1639 21.3366C61.5414 21.3612 61.5414 21.3812 61.5414 19.7649C61.5414 17.579 61.5414 15.3946 61.5414 13.2087C61.4983 13.1949 61.4552 13.1826 61.4106 13.1687C61.2228 13.7337 61.035 14.3002 60.8456 14.8651C60.35 16.3429 59.8343 17.813 59.3694 19.3C59.2216 19.7711 59.0477 19.9866 58.5027 19.9789C56.9788 19.9558 56.9803 19.9866 56.4892 18.5273C55.9027 16.7878 55.3132 15.0514 54.5989 13.3119C54.5866 13.5397 54.565 13.766 54.565 13.9938C54.562 16.2074 54.5435 18.4226 54.5773 20.6362C54.5866 21.2088 54.4065 21.3443 53.86 21.3397C52.3514 21.3258 52.3514 21.3505 52.3514 19.8249C52.3514 16.5322 52.3622 13.238 52.3406 9.94529C52.3376 9.41575 52.4407 9.16945 53.0287 9.22795C53.8677 9.31415 54.9222 8.89698 55.4994 9.38958C56.0305 9.84369 56.0675 10.8797 56.3107 11.6632C56.8787 13.4997 57.4436 15.3377 58.0686 17.3635Z" fill="white"/>
<path d="M101.534 20.6159C100.45 21.4195 99.3159 21.5149 98.1383 21.3671C96.7944 21.1993 96.0602 20.3835 95.9601 18.9719C95.8677 17.6634 96.5358 16.7305 97.7981 16.3842C98.7741 16.1163 99.7716 16.2734 100.757 16.2087C101.02 16.1918 101.431 16.435 101.528 15.9639C101.605 15.5853 101.482 15.2235 101.168 14.9726C100.748 14.637 100.244 14.5493 99.7269 14.5816C99.4468 14.5985 99.1127 14.6001 98.9034 14.7478C98.0598 15.3451 97.558 14.8433 96.9561 14.3107C96.4281 13.8442 96.4789 13.6149 97.0531 13.2978C98.6679 12.4018 100.343 12.291 102.038 12.9668C103.132 13.4024 103.725 14.2922 103.751 15.479C103.789 17.2355 103.765 18.9934 103.792 20.7514C103.8 21.1932 103.662 21.3717 103.212 21.3302C102.875 21.2994 102.529 21.2902 102.193 21.3317C101.702 21.3948 101.443 21.2409 101.534 20.6159Z" fill="white"/>
<path d="M73.867 18.0508C73.867 18.9283 73.8486 19.8073 73.8747 20.6847C73.8871 21.1404 73.7762 21.3805 73.2652 21.3312C72.9003 21.2958 72.5293 21.3251 72.1614 21.3235C72.049 21.3235 71.8535 21.3482 71.8351 21.3035C71.3948 20.2829 70.8637 21.1758 70.4158 21.2635C69.5383 21.439 68.6732 21.5021 67.8112 21.2866C66.6336 20.9926 66.0778 20.1675 66.0701 18.8082C66.0624 17.5398 66.6382 16.7424 67.7973 16.4037C68.7964 16.1112 69.8231 16.2683 70.836 16.2082C71.1008 16.1928 71.5164 16.4284 71.6011 15.9465C71.6734 15.534 71.5441 15.1522 71.1716 14.909C70.4389 14.4287 69.6646 14.5549 68.8795 14.7551C68.5608 14.8366 68.2714 15.2353 67.962 15.0475C67.511 14.772 67.1308 14.3733 66.7382 14.0069C66.4796 13.7653 66.7059 13.6298 66.8829 13.4789C68.2437 12.3075 71.3825 12.2428 72.7941 13.365C73.4268 13.8668 73.787 14.5272 73.8132 15.3323C73.8424 16.2375 73.8193 17.1442 73.8193 18.0493C73.8347 18.0508 73.8516 18.0508 73.867 18.0508Z" fill="white"/>
<path d="M83.3618 13.6804C84.1315 12.8445 84.952 12.4659 85.9526 12.5613C87.6936 12.7276 88.6865 13.7959 88.7573 15.7001C88.8204 17.3995 88.7635 19.1052 88.7835 20.8062C88.7881 21.2218 88.6357 21.3157 88.2431 21.3342C86.3236 21.425 86.3236 21.4373 86.3236 19.5316C86.3236 18.4248 86.339 17.3179 86.3174 16.2111C86.2974 15.2383 85.7786 14.7426 84.8396 14.7395C83.8975 14.7364 83.3803 15.2213 83.3618 16.2158C83.3356 17.6628 83.3326 19.1098 83.3664 20.5568C83.3803 21.1156 83.2695 21.3495 82.6368 21.3419C80.9466 21.3203 80.945 21.3526 80.945 19.667C80.945 17.5673 80.9635 15.4676 80.9327 13.3679C80.925 12.8261 81.0512 12.5798 81.6254 12.6644C81.8748 12.7014 82.1349 12.6829 82.3905 12.6675C83.0355 12.629 83.6651 12.5936 83.3618 13.6804Z" fill="white"/>
<path d="M108.632 13.8225C109.476 12.7849 110.359 12.4124 111.462 12.5956C112.892 12.8342 113.797 13.6578 113.954 15.0909C114.163 17.012 114.002 18.947 114.04 20.8758C114.046 21.2007 113.911 21.3361 113.583 21.3253C113.101 21.3099 112.616 21.293 112.137 21.33C111.662 21.3669 111.575 21.1514 111.58 20.7327C111.599 19.2564 111.592 17.7802 111.586 16.3055C111.582 15.2556 111.108 14.7507 110.132 14.7369C109.165 14.7245 108.675 15.2294 108.666 16.2916C108.654 17.7109 108.64 19.1302 108.674 20.5495C108.688 21.1098 108.577 21.3454 107.941 21.3392C106.242 21.3207 106.242 21.3515 106.242 19.6505C106.242 17.5785 106.272 15.505 106.225 13.4345C106.209 12.7726 106.42 12.5694 107.036 12.6618C107.23 12.691 107.436 12.6895 107.63 12.6618C108.34 12.5648 108.863 12.6741 108.632 13.8225Z" fill="white"/>
<path d="M91.1927 14.5116C91.1927 12.9814 91.2096 11.4498 91.1835 9.91963C91.1742 9.43011 91.2666 9.22537 91.8238 9.22076C93.6141 9.20228 93.6141 9.17611 93.6141 10.9679C93.6141 13.2647 93.6172 15.5599 93.6126 17.8566C93.611 18.5093 93.5864 19.1574 94.5331 19.1266C94.821 19.1173 94.7856 19.3621 94.8071 19.5576C94.9934 21.2586 94.5655 21.6311 92.8737 21.2355C91.7746 20.9784 91.2127 20.2888 91.1989 19.1035C91.1773 17.5734 91.1927 16.0432 91.1927 14.5116Z" fill="white"/>
<path d="M78.5899 16.9534C78.5899 18.1987 78.5745 19.4425 78.5976 20.6863C78.6053 21.1358 78.513 21.3267 77.9988 21.3375C76.1531 21.3759 76.1546 21.399 76.1546 19.5657C76.1546 17.4721 76.167 15.3786 76.1454 13.2866C76.1408 12.8232 76.2485 12.6631 76.7458 12.6554C78.5899 12.6262 78.5899 12.6062 78.5899 14.4088C78.5899 15.257 78.5899 16.1052 78.5899 16.9534Z" fill="white"/>
<path d="M121.529 20.4276C120.542 21.496 119.429 21.6222 118.245 21.2466C117.063 20.8725 116.526 19.9289 116.337 18.7636C116.144 17.5813 116.149 16.393 116.343 15.2107C116.528 14.0793 117.054 13.1695 118.184 12.7616C119.346 12.3429 120.41 12.503 121.287 13.4466C121.335 13.4974 121.414 13.5205 121.563 13.6021C121.563 12.3229 121.584 11.1129 121.552 9.90606C121.54 9.40731 121.657 9.22412 122.202 9.2195C123.983 9.20565 123.983 9.17948 123.983 10.979C123.983 14.1532 123.96 17.3289 124 20.5031C124.009 21.1973 123.792 21.4205 123.141 21.3282C122.919 21.2974 122.685 21.3005 122.462 21.3282C121.837 21.4051 121.384 21.302 121.529 20.4276Z" fill="white"/>
<path d="M118.686 17.0056C118.709 16.5838 118.673 16.1482 118.769 15.7418C118.949 14.9736 119.491 14.635 120.274 14.6811C120.993 14.7243 121.427 15.0752 121.511 15.8157C121.598 16.6038 121.597 17.3904 121.515 18.1786C121.434 18.9652 120.958 19.3023 120.199 19.3116C119.395 19.3208 118.861 18.9344 118.752 18.1894C118.695 17.803 118.743 17.4012 118.743 17.0071C118.723 17.0071 118.704 17.0071 118.686 17.0056Z" fill="#1B2C19"/>
<path d="M99.8041 19.6461C99.5101 19.6199 99.3408 19.6168 99.1745 19.5876C98.6866 19.4998 98.1632 19.3813 98.1847 18.7578C98.2078 18.1144 98.6896 17.9435 99.2592 17.9497C99.7672 17.9543 100.278 17.9189 100.782 17.9635C101.039 17.9866 101.462 17.7188 101.531 18.2175C101.598 18.6993 101.608 19.2243 101.008 19.4075C100.582 19.5337 100.129 19.5829 99.8041 19.6461Z" fill="#1B2C19"/>
<path d="M70.2204 17.9478C70.4452 17.9478 70.6776 17.9139 70.8947 17.957C71.1471 18.0063 71.5751 17.7246 71.6089 18.2572C71.6351 18.6728 71.709 19.1454 71.2025 19.3501C70.4251 19.6626 69.6231 19.7334 68.8119 19.4779C68.4471 19.3625 68.2408 19.1023 68.2716 18.7221C68.3039 18.3157 68.5456 18.0263 68.9581 17.9847C69.3753 17.9432 69.8002 17.9755 70.222 17.9755C70.2204 17.9663 70.2204 17.957 70.2204 17.9478Z" fill="#1B2C19"/>
</svg>
